<?xml version="1.0" encoding="UTF-8" standalone="no"?>
<!DOCTYPE svg PUBLIC "-//W3C//DTD SVG 1.1//EN"
 "http://www.w3.org/Graphics/SVG/1.1/DTD/svg11.dtd">
<!-- Generated by graphviz version 2.40.1 (20161225.0304)
 -->
<!-- Title: %3 Pages: 1 -->
<svg width="834pt" height="260pt"
 viewBox="0.00 0.00 834.00 260.00" xmlns="http://www.w3.org/2000/svg" xmlns:xlink="http://www.w3.org/1999/xlink">
<g id="graph0" class="graph" transform="scale(1 1) rotate(0) translate(4 256)">
<title>%3</title>
<polygon fill="#ffffff" stroke="transparent" points="-4,4 -4,-256 830,-256 830,4 -4,4"/>
<!-- 0 -->
<g id="node1" class="node">
<title>0</title>
<ellipse fill="none" stroke="#000000" cx="332" cy="-234" rx="27" ry="18"/>
<text text-anchor="middle" x="332" y="-230.3" font-family="Times,serif" font-size="14.00" fill="#000000">0</text>
</g>
<!-- id -->
<g id="node2" class="node">
<title>id</title>
<ellipse fill="none" stroke="#000000" cx="27" cy="-162" rx="27" ry="18"/>
<text text-anchor="middle" x="27" y="-158.3" font-family="Times,serif" font-size="14.00" fill="#000000">id</text>
</g>
<!-- 0&#45;&gt;id -->
<g id="edge1" class="edge">
<title>0&#45;&gt;id</title>
<path fill="none" stroke="#000000" d="M305.036,-230.9933C255.8727,-224.9874 148.819,-209.4794 63,-180 61.1165,-179.353 59.2062,-178.627 57.2984,-177.8475"/>
<polygon fill="#000000" stroke="#000000" points="58.4714,-174.5373 47.916,-173.6238 55.5979,-180.9204 58.4714,-174.5373"/>
</g>
<!-- name -->
<g id="node3" class="node">
<title>name</title>
<ellipse fill="none" stroke="#000000" cx="103" cy="-162" rx="30.5947" ry="18"/>
<text text-anchor="middle" x="103" y="-158.3" font-family="Times,serif" font-size="14.00" fill="#000000">name</text>
</g>
<!-- 0&#45;&gt;name -->
<g id="edge2" class="edge">
<title>0&#45;&gt;name</title>
<path fill="none" stroke="#000000" d="M306.396,-228.0683C269.5203,-219.2243 199.5633,-201.3167 142,-180 140.1119,-179.3008 138.1882,-178.5488 136.2575,-177.7631"/>
<polygon fill="#000000" stroke="#000000" points="137.2462,-174.3782 126.6771,-173.6397 134.4788,-180.808 137.2462,-174.3782"/>
</g>
<!-- username -->
<g id="node4" class="node">
<title>username</title>
<ellipse fill="none" stroke="#000000" cx="196" cy="-162" rx="44.6926" ry="18"/>
<text text-anchor="middle" x="196" y="-158.3" font-family="Times,serif" font-size="14.00" fill="#000000">username</text>
</g>
<!-- 0&#45;&gt;username -->
<g id="edge3" class="edge">
<title>0&#45;&gt;username</title>
<path fill="none" stroke="#000000" d="M310.75,-222.75C289.7246,-211.6189 257.142,-194.3693 232.0606,-181.0909"/>
<polygon fill="#000000" stroke="#000000" points="233.6703,-177.9829 223.1948,-176.3972 230.395,-184.1694 233.6703,-177.9829"/>
</g>
<!-- email -->
<g id="node5" class="node">
<title>email</title>
<ellipse fill="none" stroke="#000000" cx="289" cy="-162" rx="30.5947" ry="18"/>
<text text-anchor="middle" x="289" y="-158.3" font-family="Times,serif" font-size="14.00" fill="#000000">email</text>
</g>
<!-- 0&#45;&gt;email -->
<g id="edge4" class="edge">
<title>0&#45;&gt;email</title>
<path fill="none" stroke="#000000" d="M321.8096,-216.937C316.6904,-208.3654 310.3754,-197.7914 304.6571,-188.2165"/>
<polygon fill="#000000" stroke="#000000" points="307.5483,-186.2315 299.416,-179.4407 301.5385,-189.8207 307.5483,-186.2315"/>
</g>
<!-- address -->
<g id="node6" class="node">
<title>address</title>
<ellipse fill="none" stroke="#000000" cx="375" cy="-162" rx="37.0935" ry="18"/>
<text text-anchor="middle" x="375" y="-158.3" font-family="Times,serif" font-size="14.00" fill="#000000">address</text>
</g>
<!-- 0&#45;&gt;address -->
<g id="edge5" class="edge">
<title>0&#45;&gt;address</title>
<path fill="none" stroke="#000000" d="M342.1904,-216.937C347.3096,-208.3654 353.6246,-197.7914 359.3429,-188.2165"/>
<polygon fill="#000000" stroke="#000000" points="362.4615,-189.8207 364.584,-179.4407 356.4517,-186.2315 362.4615,-189.8207"/>
</g>
<!-- phone -->
<g id="node14" class="node">
<title>phone</title>
<ellipse fill="none" stroke="#000000" cx="463" cy="-162" rx="32.4942" ry="18"/>
<text text-anchor="middle" x="463" y="-158.3" font-family="Times,serif" font-size="14.00" fill="#000000">phone</text>
</g>
<!-- 0&#45;&gt;phone -->
<g id="edge13" class="edge">
<title>0&#45;&gt;phone</title>
<path fill="none" stroke="#000000" d="M353.0474,-222.432C374.0828,-210.8705 406.6999,-192.9436 430.9527,-179.6138"/>
<polygon fill="#000000" stroke="#000000" points="432.719,-182.6369 439.7967,-174.753 429.3473,-176.5024 432.719,-182.6369"/>
</g>
<!-- website -->
<g id="node15" class="node">
<title>website</title>
<ellipse fill="none" stroke="#000000" cx="551" cy="-162" rx="37.8943" ry="18"/>
<text text-anchor="middle" x="551" y="-158.3" font-family="Times,serif" font-size="14.00" fill="#000000">website</text>
</g>
<!-- 0&#45;&gt;website -->
<g id="edge14" class="edge">
<title>0&#45;&gt;website</title>
<path fill="none" stroke="#000000" d="M356.938,-226.696C390.5397,-216.7352 452.1247,-198.0576 504,-180 506.7077,-179.0575 509.4934,-178.0608 512.2927,-177.0395"/>
<polygon fill="#000000" stroke="#000000" points="513.6165,-180.2814 521.7685,-173.5141 511.1757,-173.7207 513.6165,-180.2814"/>
</g>
<!-- company -->
<g id="node16" class="node">
<title>company</title>
<ellipse fill="none" stroke="#000000" cx="684" cy="-162" rx="43.5923" ry="18"/>
<text text-anchor="middle" x="684" y="-158.3" font-family="Times,serif" font-size="14.00" fill="#000000">company</text>
</g>
<!-- 0&#45;&gt;company -->
<g id="edge15" class="edge">
<title>0&#45;&gt;company</title>
<path fill="none" stroke="#000000" d="M358.0628,-228.7634C405.7136,-219.1771 510.0804,-198.1249 598,-180 610.022,-177.5216 622.9833,-174.8229 635.1057,-172.2871"/>
<polygon fill="#000000" stroke="#000000" points="635.982,-175.6796 645.0521,-170.2038 634.547,-168.8282 635.982,-175.6796"/>
</g>
<!-- street -->
<g id="node7" class="node">
<title>street</title>
<ellipse fill="none" stroke="#000000" cx="211" cy="-90" rx="29.795" ry="18"/>
<text text-anchor="middle" x="211" y="-86.3" font-family="Times,serif" font-size="14.00" fill="#000000">street</text>
</g>
<!-- address&#45;&gt;street -->
<g id="edge6" class="edge">
<title>address&#45;&gt;street</title>
<path fill="none" stroke="#000000" d="M346.6156,-149.9735C321.2231,-139.1587 283.024,-122.7514 250,-108 248.1616,-107.1788 246.2772,-106.3306 244.3769,-105.4703"/>
<polygon fill="#000000" stroke="#000000" points="245.4332,-102.105 234.8828,-101.1356 242.5259,-108.4728 245.4332,-102.105"/>
</g>
<!-- suite -->
<g id="node8" class="node">
<title>suite</title>
<ellipse fill="none" stroke="#000000" cx="286" cy="-90" rx="27.0966" ry="18"/>
<text text-anchor="middle" x="286" y="-86.3" font-family="Times,serif" font-size="14.00" fill="#000000">suite</text>
</g>
<!-- address&#45;&gt;suite -->
<g id="edge7" class="edge">
<title>address&#45;&gt;suite</title>
<path fill="none" stroke="#000000" d="M355.6883,-146.3771C342.6964,-135.8667 325.4334,-121.9012 311.3397,-110.4996"/>
<polygon fill="#000000" stroke="#000000" points="313.4399,-107.6967 303.4641,-104.1282 309.0373,-113.1388 313.4399,-107.6967"/>
</g>
<!-- city -->
<g id="node9" class="node">
<title>city</title>
<ellipse fill="none" stroke="#000000" cx="358" cy="-90" rx="27" ry="18"/>
<text text-anchor="middle" x="358" y="-86.3" font-family="Times,serif" font-size="14.00" fill="#000000">city</text>
</g>
<!-- address&#45;&gt;city -->
<g id="edge8" class="edge">
<title>address&#45;&gt;city</title>
<path fill="none" stroke="#000000" d="M370.7102,-143.8314C368.8438,-135.9266 366.615,-126.4872 364.5489,-117.7365"/>
<polygon fill="#000000" stroke="#000000" points="367.9339,-116.8415 362.2296,-107.9134 361.1212,-118.4501 367.9339,-116.8415"/>
</g>
<!-- zipcode -->
<g id="node10" class="node">
<title>zipcode</title>
<ellipse fill="none" stroke="#000000" cx="441" cy="-90" rx="38.1938" ry="18"/>
<text text-anchor="middle" x="441" y="-86.3" font-family="Times,serif" font-size="14.00" fill="#000000">zipcode</text>
</g>
<!-- address&#45;&gt;zipcode -->
<g id="edge9" class="edge">
<title>address&#45;&gt;zipcode</title>
<path fill="none" stroke="#000000" d="M390.3076,-145.3008C398.8043,-136.0317 409.5226,-124.339 418.9125,-114.0954"/>
<polygon fill="#000000" stroke="#000000" points="421.5982,-116.3453 425.7754,-106.6087 416.4381,-111.6152 421.5982,-116.3453"/>
</g>
<!-- geo -->
<g id="node11" class="node">
<title>geo</title>
<ellipse fill="none" stroke="#000000" cx="524" cy="-90" rx="27" ry="18"/>
<text text-anchor="middle" x="524" y="-86.3" font-family="Times,serif" font-size="14.00" fill="#000000">geo</text>
</g>
<!-- address&#45;&gt;geo -->
<g id="edge10" class="edge">
<title>address&#45;&gt;geo</title>
<path fill="none" stroke="#000000" d="M402.0066,-149.2602C424.9402,-138.402 458.6996,-122.3246 488,-108 489.742,-107.1483 491.5294,-106.2698 493.3319,-105.3802"/>
<polygon fill="#000000" stroke="#000000" points="494.9283,-108.4953 502.329,-100.9137 491.8157,-102.2254 494.9283,-108.4953"/>
</g>
<!-- lat -->
<g id="node12" class="node">
<title>lat</title>
<ellipse fill="none" stroke="#000000" cx="488" cy="-18" rx="27" ry="18"/>
<text text-anchor="middle" x="488" y="-14.3" font-family="Times,serif" font-size="14.00" fill="#000000">lat</text>
</g>
<!-- geo&#45;&gt;lat -->
<g id="edge11" class="edge">
<title>geo&#45;&gt;lat</title>
<path fill="none" stroke="#000000" d="M515.2854,-72.5708C511.0403,-64.0807 505.8464,-53.6929 501.1337,-44.2674"/>
<polygon fill="#000000" stroke="#000000" points="504.237,-42.6477 496.6343,-35.2687 497.976,-45.7782 504.237,-42.6477"/>
</g>
<!-- lng -->
<g id="node13" class="node">
<title>lng</title>
<ellipse fill="none" stroke="#000000" cx="560" cy="-18" rx="27" ry="18"/>
<text text-anchor="middle" x="560" y="-14.3" font-family="Times,serif" font-size="14.00" fill="#000000">lng</text>
</g>
<!-- geo&#45;&gt;lng -->
<g id="edge12" class="edge">
<title>geo&#45;&gt;lng</title>
<path fill="none" stroke="#000000" d="M532.7146,-72.5708C536.9597,-64.0807 542.1536,-53.6929 546.8663,-44.2674"/>
<polygon fill="#000000" stroke="#000000" points="550.024,-45.7782 551.3657,-35.2687 543.763,-42.6477 550.024,-45.7782"/>
</g>
<!-- companyname -->
<g id="node17" class="node">
<title>companyname</title>
<ellipse fill="none" stroke="#000000" cx="600" cy="-90" rx="30.5947" ry="18"/>
<text text-anchor="middle" x="600" y="-86.3" font-family="Times,serif" font-size="14.00" fill="#000000">name</text>
</g>
<!-- company&#45;&gt;companyname -->
<g id="edge16" class="edge">
<title>company&#45;&gt;companyname</title>
<path fill="none" stroke="#000000" d="M664.9391,-145.6621C653.2651,-135.6558 638.1804,-122.726 625.4883,-111.8471"/>
<polygon fill="#000000" stroke="#000000" points="627.4236,-108.8962 617.5532,-105.0456 622.868,-114.211 627.4236,-108.8962"/>
</g>
<!-- catchPhrase -->
<g id="node18" class="node">
<title>catchPhrase</title>
<ellipse fill="none" stroke="#000000" cx="701" cy="-90" rx="52.7911" ry="18"/>
<text text-anchor="middle" x="701" y="-86.3" font-family="Times,serif" font-size="14.00" fill="#000000">catchPhrase</text>
</g>
<!-- company&#45;&gt;catchPhrase -->
<g id="edge17" class="edge">
<title>company&#45;&gt;catchPhrase</title>
<path fill="none" stroke="#000000" d="M688.2898,-143.8314C690.108,-136.131 692.2699,-126.9743 694.2905,-118.4166"/>
<polygon fill="#000000" stroke="#000000" points="697.7608,-118.95 696.6524,-108.4133 690.9481,-117.3414 697.7608,-118.95"/>
</g>
<!-- bs -->
<g id="node19" class="node">
<title>bs</title>
<ellipse fill="none" stroke="#000000" cx="799" cy="-90" rx="27" ry="18"/>
<text text-anchor="middle" x="799" y="-86.3" font-family="Times,serif" font-size="14.00" fill="#000000">bs</text>
</g>
<!-- company&#45;&gt;bs -->
<g id="edge18" class="edge">
<title>company&#45;&gt;bs</title>
<path fill="none" stroke="#000000" d="M708.1078,-146.9064C726.3023,-135.5151 751.3232,-119.8498 770.5074,-107.8388"/>
<polygon fill="#000000" stroke="#000000" points="772.5141,-110.7119 779.1326,-102.4387 768.7994,-104.7788 772.5141,-110.7119"/>
</g>
</g>
</svg>
