<?xml version="1.0" encoding="UTF-8" standalone="no"?>
<!DOCTYPE svg PUBLIC "-//W3C//DTD SVG 1.1//EN"
 "http://www.w3.org/Graphics/SVG/1.1/DTD/svg11.dtd">
<!-- Generated by graphviz version 2.40.1 (20161225.0304)
 -->
<!-- Title: Matrix Pages: 1 -->
<svg width="1620pt" height="945pt"
 viewBox="0.00 0.00 1619.80 945.09" xmlns="http://www.w3.org/2000/svg" xmlns:xlink="http://www.w3.org/1999/xlink">
<g id="graph0" class="graph" transform="scale(1 1) rotate(0) translate(4 941.0898)">
<title>Matrix</title>
<polygon fill="#ffffff" stroke="transparent" points="-4,4 -4,-941.0898 1615.8,-941.0898 1615.8,4 -4,4"/>
<!-- l1 -->
<!-- l2 -->
<!-- l1&#45;&gt;l2 -->
<!-- 19 -->
<g id="node2" class="node">
<title>19</title>
<polygon fill="none" stroke="#000000" points="874.014,-907.6959 850.407,-936.984 803.193,-936.984 779.586,-907.6959 803.193,-878.4078 850.407,-878.4078 874.014,-907.6959"/>
<text text-anchor="start" x="817.8" y="-911.4959" font-family="Times,serif" font-size="14.00" fill="#000000"> </text>
<text text-anchor="start" x="821.8" y="-911.4959" font-family="Times,serif" font-weight="bold" font-size="14.00" fill="#000000">19</text>
<text text-anchor="start" x="805.8" y="-897.4959" font-family="Times,serif" font-size="14.00" fill="#000000">0.0421 </text>
</g>
<!-- 19&#45;&gt;19 -->
<g id="edge1" class="edge">
<title>19&#45;&gt;19</title>
<path fill="none" stroke="#000000" d="M866.0404,-917.8055C880.3964,-918.0794 892.1568,-914.7096 892.1568,-907.6959 892.1568,-902.4357 885.5416,-899.225 876.1775,-898.0641"/>
<polygon fill="#000000" stroke="#000000" points="876.1941,-894.5611 866.0404,-897.5864 875.8645,-901.5533 876.1941,-894.5611"/>
<text text-anchor="middle" x="908.1568" y="-903.9959" font-family="Times,serif" font-size="14.00" fill="#000000"> 9/36 </text>
</g>
<!-- 18 -->
<g id="node4" class="node">
<title>18</title>
<polygon fill="none" stroke="#000000" points="667.014,-797.9082 643.407,-827.1963 596.193,-827.1963 572.586,-797.9082 596.193,-768.62 643.407,-768.62 667.014,-797.9082"/>
<text text-anchor="start" x="610.8" y="-801.7082" font-family="Times,serif" font-size="14.00" fill="#000000"> </text>
<text text-anchor="start" x="614.8" y="-801.7082" font-family="Times,serif" font-weight="bold" font-size="14.00" fill="#000000">18</text>
<text text-anchor="start" x="598.8" y="-787.7082" font-family="Times,serif" font-size="14.00" fill="#000000">0.0524 </text>
</g>
<!-- 19&#45;&gt;18 -->
<g id="edge2" class="edge">
<title>19&#45;&gt;18</title>
<path fill="none" stroke="#000000" d="M793.5419,-890.0566C757.7804,-871.0896 700.8354,-840.8873 661.9574,-820.2674"/>
<polygon fill="#000000" stroke="#000000" points="663.4499,-817.0972 652.9756,-815.5037 660.17,-823.2813 663.4499,-817.0972"/>
<text text-anchor="middle" x="750.8" y="-849.102" font-family="Times,serif" font-size="14.00" fill="#000000"> 7/36 </text>
</g>
<!-- 17 -->
<g id="node5" class="node">
<title>17</title>
<polygon fill="none" stroke="#000000" points="1086.014,-797.9082 1062.407,-827.1963 1015.193,-827.1963 991.586,-797.9082 1015.193,-768.62 1062.407,-768.62 1086.014,-797.9082"/>
<text text-anchor="start" x="1029.8" y="-801.7082" font-family="Times,serif" font-size="14.00" fill="#000000"> </text>
<text text-anchor="start" x="1033.8" y="-801.7082" font-family="Times,serif" font-weight="bold" font-size="14.00" fill="#000000">17</text>
<text text-anchor="start" x="1017.8" y="-787.7082" font-family="Times,serif" font-size="14.00" fill="#000000">0.0561 </text>
</g>
<!-- 19&#45;&gt;17 -->
<g id="edge3" class="edge">
<title>19&#45;&gt;17</title>
<path fill="none" stroke="#000000" d="M860.0248,-889.9076C883.6184,-877.3297 916.0767,-860.1352 944.8,-845.302 961.3611,-836.7496 979.6453,-827.4898 995.6513,-819.4435"/>
<polygon fill="#000000" stroke="#000000" points="997.4146,-822.4746 1004.7819,-814.8607 994.2745,-816.2184 997.4146,-822.4746"/>
<text text-anchor="middle" x="960.8" y="-849.102" font-family="Times,serif" font-size="14.00" fill="#000000"> 9/36 </text>
</g>
<!-- 15 -->
<g id="node8" class="node">
<title>15</title>
<polygon fill="none" stroke="#000000" points="873.014,-688.1204 849.407,-717.4085 802.193,-717.4085 778.586,-688.1204 802.193,-658.8323 849.407,-658.8323 873.014,-688.1204"/>
<text text-anchor="start" x="816.8" y="-691.9204" font-family="Times,serif" font-size="14.00" fill="#000000"> </text>
<text text-anchor="start" x="820.8" y="-691.9204" font-family="Times,serif" font-weight="bold" font-size="14.00" fill="#000000">15</text>
<text text-anchor="start" x="804.8" y="-677.9204" font-family="Times,serif" font-size="14.00" fill="#000000">0.0491 </text>
</g>
<!-- 19&#45;&gt;15 -->
<g id="edge4" class="edge">
<title>19&#45;&gt;15</title>
<path fill="none" stroke="#000000" d="M816.2716,-878.3422C811.4242,-863.2968 806.2193,-844.5539 803.8,-827.302 800.1715,-801.4273 800.3208,-794.4095 803.8,-768.5143 805.6245,-754.9346 809.1091,-740.4021 812.7761,-727.4793"/>
<polygon fill="#000000" stroke="#000000" points="816.2449,-728.0918 815.7278,-717.5096 809.5329,-726.1046 816.2449,-728.0918"/>
<text text-anchor="middle" x="823.3" y="-794.2082" font-family="Times,serif" font-size="14.00" fill="#000000"> 11/36 </text>
</g>
<!-- l3 -->
<!-- l2&#45;&gt;l3 -->
<!-- 18&#45;&gt;19 -->
<g id="edge5" class="edge">
<title>18&#45;&gt;19</title>
<path fill="none" stroke="#000000" d="M640.0581,-827.2098C649.4437,-838.925 661.4726,-851.6601 674.8,-860.302 705.014,-879.8938 743.8392,-891.8189 774.6873,-898.8068"/>
<polygon fill="#000000" stroke="#000000" points="774.3059,-902.3049 784.819,-900.9912 775.7813,-895.4621 774.3059,-902.3049"/>
<text text-anchor="middle" x="690.8" y="-849.102" font-family="Times,serif" font-size="14.00" fill="#000000"> 5/36 </text>
</g>
<!-- 16 -->
<g id="node7" class="node">
<title>16</title>
<polygon fill="none" stroke="#000000" points="452.014,-688.1204 428.407,-717.4085 381.193,-717.4085 357.586,-688.1204 381.193,-658.8323 428.407,-658.8323 452.014,-688.1204"/>
<text text-anchor="start" x="395.8" y="-691.9204" font-family="Times,serif" font-size="14.00" fill="#000000"> </text>
<text text-anchor="start" x="399.8" y="-691.9204" font-family="Times,serif" font-weight="bold" font-size="14.00" fill="#000000">16</text>
<text text-anchor="start" x="383.8" y="-677.9204" font-family="Times,serif" font-size="14.00" fill="#000000">0.0384 </text>
</g>
<!-- 18&#45;&gt;16 -->
<g id="edge6" class="edge">
<title>18&#45;&gt;16</title>
<path fill="none" stroke="#000000" d="M575.5875,-793.7788C521.1375,-787.7252 433.208,-774.4724 411.8,-750.5143 406.1718,-744.2157 403.3096,-736.0132 402.0545,-727.6365"/>
<polygon fill="#000000" stroke="#000000" points="405.526,-727.1391 401.2427,-717.4488 398.5481,-727.6952 405.526,-727.1391"/>
<text text-anchor="middle" x="427.8" y="-739.3143" font-family="Times,serif" font-size="14.00" fill="#000000"> 7/36 </text>
</g>
<!-- 18&#45;&gt;15 -->
<g id="edge7" class="edge">
<title>18&#45;&gt;15</title>
<path fill="none" stroke="#000000" d="M650.4355,-776.4332C674.3257,-759.7664 704.4822,-738.9327 710.8,-735.5143 732.6227,-723.7065 758.023,-712.9505 779.3931,-704.6809"/>
<polygon fill="#000000" stroke="#000000" points="780.8004,-707.8903 788.9009,-701.0615 778.3099,-701.3483 780.8004,-707.8903"/>
<text text-anchor="middle" x="726.8" y="-739.3143" font-family="Times,serif" font-size="14.00" fill="#000000"> 9/36 </text>
</g>
<!-- 13 -->
<g id="node11" class="node">
<title>13</title>
<polygon fill="none" stroke="#000000" points="635.014,-578.3326 611.407,-607.6208 564.193,-607.6208 540.586,-578.3326 564.193,-549.0445 611.407,-549.0445 635.014,-578.3326"/>
<text text-anchor="start" x="578.8" y="-582.1326" font-family="Times,serif" font-size="14.00" fill="#000000"> </text>
<text text-anchor="start" x="582.8" y="-582.1326" font-family="Times,serif" font-weight="bold" font-size="14.00" fill="#000000">13</text>
<text text-anchor="start" x="566.8" y="-568.1326" font-family="Times,serif" font-size="14.00" fill="#000000">0.0481 </text>
</g>
<!-- 18&#45;&gt;13 -->
<g id="edge8" class="edge">
<title>18&#45;&gt;13</title>
<path fill="none" stroke="#000000" d="M587.2431,-779.316C566.2673,-765.3242 540.7579,-744.0346 528.8,-717.5143 518.0603,-693.6957 517.6112,-682.3375 528.8,-658.7265 534.21,-647.31 542.5635,-650.3059 550.8,-640.7265 557.1375,-633.3557 563.017,-624.7575 568.1386,-616.342"/>
<polygon fill="#000000" stroke="#000000" points="571.1665,-618.0975 573.1888,-607.6975 565.1223,-614.5664 571.1665,-618.0975"/>
<text text-anchor="middle" x="548.3" y="-684.4204" font-family="Times,serif" font-size="14.00" fill="#000000"> 11/36 </text>
</g>
<!-- 9 -->
<g id="node16" class="node">
<title>9</title>
<polygon fill="none" stroke="#000000" points="1176.014,-468.5449 1152.407,-497.833 1105.193,-497.833 1081.586,-468.5449 1105.193,-439.2568 1152.407,-439.2568 1176.014,-468.5449"/>
<text text-anchor="start" x="1123.3" y="-472.3449" font-family="Times,serif" font-size="14.00" fill="#000000"> </text>
<text text-anchor="start" x="1127.3" y="-472.3449" font-family="Times,serif" font-weight="bold" font-size="14.00" fill="#000000">9</text>
<text text-anchor="start" x="1107.8" y="-458.3449" font-family="Times,serif" font-size="14.00" fill="#000000">0.0516 </text>
</g>
<!-- 18&#45;&gt;9 -->
<g id="edge9" class="edge">
<title>18&#45;&gt;9</title>
<path fill="none" stroke="#000000" d="M627.1311,-768.3369C630.505,-753.236 634.1253,-734.5092 635.8,-717.5143 638.3623,-691.5123 644.6946,-683.2938 635.8,-658.7265 632.2549,-648.9348 624.3451,-650.5182 620.8,-640.7265 618.5305,-634.458 617.3086,-631.4058 620.8,-625.7265 627.8757,-614.2169 824.7893,-519.5803 837.8,-515.9388 937.3935,-488.0635 970.1209,-525.5064 1069.8,-497.9388 1075.5941,-496.3363 1081.4946,-494.1538 1087.2139,-491.6968"/>
<polygon fill="#000000" stroke="#000000" points="1089.0044,-494.7253 1096.6172,-487.3566 1086.0709,-488.3696 1089.0044,-494.7253"/>
<text text-anchor="middle" x="636.8" y="-629.5265" font-family="Times,serif" font-size="14.00" fill="#000000"> 3/36 </text>
</g>
<!-- 3 -->
<g id="node25" class="node">
<title>3</title>
<polygon fill="none" stroke="#000000" points="614.014,-139.1816 590.407,-168.4698 543.193,-168.4698 519.586,-139.1816 543.193,-109.8935 590.407,-109.8935 614.014,-139.1816"/>
<text text-anchor="start" x="561.3" y="-142.9816" font-family="Times,serif" font-size="14.00" fill="#000000"> </text>
<text text-anchor="start" x="565.3" y="-142.9816" font-family="Times,serif" font-weight="bold" font-size="14.00" fill="#000000">3</text>
<text text-anchor="start" x="545.8" y="-128.9816" font-family="Times,serif" font-size="14.00" fill="#000000">0.0674 </text>
</g>
<!-- 18&#45;&gt;3 -->
<g id="edge10" class="edge">
<title>18&#45;&gt;3</title>
<path fill="none" stroke="#000000" d="M588.9559,-777.3494C582.2365,-773.7775 574.9814,-770.5582 567.8,-768.5143 471.7562,-741.1793 208.7719,-793.8347 118.8,-750.5143 85.7567,-734.6043 64.8,-724.7945 64.8,-688.1204 64.8,-688.1204 64.8,-688.1204 64.8,-248.9694 64.8,-212.2953 85.7994,-202.5739 118.8,-186.5755 198.0672,-148.1475 430.1387,-192.9162 514.8,-168.5755 518.8364,-167.415 522.8972,-165.886 526.8735,-164.1342"/>
<polygon fill="#000000" stroke="#000000" points="528.4924,-167.2388 535.9474,-159.7106 525.4249,-160.9467 528.4924,-167.2388"/>
<text text-anchor="middle" x="80.8" y="-464.8449" font-family="Times,serif" font-size="14.00" fill="#000000"> 1/36 </text>
</g>
<!-- 17&#45;&gt;19 -->
<g id="edge11" class="edge">
<title>17&#45;&gt;19</title>
<path fill="none" stroke="#000000" d="M1015.0085,-827.4321C1004.3638,-839.043 991.0139,-851.6401 976.8,-860.302 946.5231,-878.7526 908.3781,-890.6783 878.1318,-897.9518"/>
<polygon fill="#000000" stroke="#000000" points="877.1573,-894.5846 868.1999,-900.2429 878.7307,-901.4055 877.1573,-894.5846"/>
<text text-anchor="middle" x="1011.8" y="-849.102" font-family="Times,serif" font-size="14.00" fill="#000000"> 3/36 </text>
</g>
<!-- 17&#45;&gt;15 -->
<g id="edge12" class="edge">
<title>17&#45;&gt;15</title>
<path fill="none" stroke="#000000" d="M995.3371,-793.2376C959.8094,-787.6986 909.6151,-775.7903 872.8,-750.5143 863.3841,-744.0497 855.0768,-735.0858 848.1677,-725.9666"/>
<polygon fill="#000000" stroke="#000000" points="850.8742,-723.7333 842.2241,-717.6156 845.1711,-727.7923 850.8742,-723.7333"/>
<text text-anchor="middle" x="888.8" y="-739.3143" font-family="Times,serif" font-size="14.00" fill="#000000"> 7/36 </text>
</g>
<!-- 14 -->
<g id="node9" class="node">
<title>14</title>
<polygon fill="none" stroke="#000000" points="1337.014,-688.1204 1313.407,-717.4085 1266.193,-717.4085 1242.586,-688.1204 1266.193,-658.8323 1313.407,-658.8323 1337.014,-688.1204"/>
<text text-anchor="start" x="1280.8" y="-691.9204" font-family="Times,serif" font-size="14.00" fill="#000000"> </text>
<text text-anchor="start" x="1284.8" y="-691.9204" font-family="Times,serif" font-weight="bold" font-size="14.00" fill="#000000">14</text>
<text text-anchor="start" x="1268.8" y="-677.9204" font-family="Times,serif" font-size="14.00" fill="#000000">0.0433 </text>
</g>
<!-- 17&#45;&gt;14 -->
<g id="edge13" class="edge">
<title>17&#45;&gt;14</title>
<path fill="none" stroke="#000000" d="M1081.3885,-792.0539C1118.7248,-785.6724 1173.6266,-773.1954 1216.8,-750.5143 1231.0865,-743.0088 1245.006,-732.2588 1256.7934,-721.7908"/>
<polygon fill="#000000" stroke="#000000" points="1259.2068,-724.3266 1264.214,-714.9896 1254.4771,-719.1662 1259.2068,-724.3266"/>
<text text-anchor="middle" x="1254.8" y="-739.3143" font-family="Times,serif" font-size="14.00" fill="#000000"> 9/36 </text>
</g>
<!-- 12 -->
<g id="node12" class="node">
<title>12</title>
<polygon fill="none" stroke="#000000" points="1108.014,-578.3326 1084.407,-607.6208 1037.193,-607.6208 1013.586,-578.3326 1037.193,-549.0445 1084.407,-549.0445 1108.014,-578.3326"/>
<text text-anchor="start" x="1051.8" y="-582.1326" font-family="Times,serif" font-size="14.00" fill="#000000"> </text>
<text text-anchor="start" x="1055.8" y="-582.1326" font-family="Times,serif" font-weight="bold" font-size="14.00" fill="#000000">12</text>
<text text-anchor="start" x="1039.8" y="-568.1326" font-family="Times,serif" font-size="14.00" fill="#000000">0.0504 </text>
</g>
<!-- 17&#45;&gt;12 -->
<g id="edge14" class="edge">
<title>17&#45;&gt;12</title>
<path fill="none" stroke="#000000" d="M1062.2389,-768.5886C1066.8173,-762.666 1071.5221,-756.4382 1075.8,-750.5143 1086.1197,-736.2237 1090.7877,-733.6866 1097.8,-717.5143 1111.7444,-685.3543 1111.7733,-675.5475 1115.8,-640.7265 1116.5658,-634.104 1118.5778,-631.7869 1115.8,-625.7265 1112.1762,-617.8202 1106.5102,-610.7329 1100.1663,-604.5974"/>
<polygon fill="#000000" stroke="#000000" points="1102.3082,-601.82 1092.4893,-597.8401 1097.6832,-607.0745 1102.3082,-601.82"/>
<text text-anchor="middle" x="1132.3" y="-684.4204" font-family="Times,serif" font-size="14.00" fill="#000000"> 11/36 </text>
</g>
<!-- 11 -->
<g id="node14" class="node">
<title>11</title>
<polygon fill="none" stroke="#000000" points="475.014,-468.5449 451.407,-497.833 404.193,-497.833 380.586,-468.5449 404.193,-439.2568 451.407,-439.2568 475.014,-468.5449"/>
<text text-anchor="start" x="418.8" y="-472.3449" font-family="Times,serif" font-size="14.00" fill="#000000"> </text>
<text text-anchor="start" x="422.8" y="-472.3449" font-family="Times,serif" font-weight="bold" font-size="14.00" fill="#000000">11</text>
<text text-anchor="start" x="406.8" y="-458.3449" font-family="Times,serif" font-size="14.00" fill="#000000">0.0532 </text>
</g>
<!-- 17&#45;&gt;11 -->
<g id="edge15" class="edge">
<title>17&#45;&gt;11</title>
<path fill="none" stroke="#000000" d="M1010.3219,-774.1284C1002.7776,-767.0091 995.0129,-758.8616 988.8,-750.5143 951.7052,-700.6753 977.1506,-660.6989 925.8,-625.7265 890.0146,-601.3549 772.6071,-622.1953 731.8,-607.7265 687.4686,-592.0081 685.9789,-569.7543 643.8,-548.9388 602.9644,-528.7861 590.0337,-530.2401 546.8,-515.9388 521.9797,-507.7284 515.138,-507.4844 490.8,-497.9388 484.3831,-495.422 477.694,-492.5653 471.1734,-489.6456"/>
<polygon fill="#000000" stroke="#000000" points="472.3417,-486.3313 461.7919,-485.3551 469.4303,-492.6972 472.3417,-486.3313"/>
<text text-anchor="middle" x="958.8" y="-629.5265" font-family="Times,serif" font-size="14.00" fill="#000000"> 5/36 </text>
</g>
<!-- 2 -->
<g id="node26" class="node">
<title>2</title>
<polygon fill="none" stroke="#000000" points="941.014,-139.1816 917.407,-168.4698 870.193,-168.4698 846.586,-139.1816 870.193,-109.8935 917.407,-109.8935 941.014,-139.1816"/>
<text text-anchor="start" x="888.3" y="-142.9816" font-family="Times,serif" font-size="14.00" fill="#000000"> </text>
<text text-anchor="start" x="892.3" y="-142.9816" font-family="Times,serif" font-weight="bold" font-size="14.00" fill="#000000">2</text>
<text text-anchor="start" x="872.8" y="-128.9816" font-family="Times,serif" font-size="14.00" fill="#000000">0.0765 </text>
</g>
<!-- 17&#45;&gt;2 -->
<g id="edge16" class="edge">
<title>17&#45;&gt;2</title>
<path fill="none" stroke="#000000" d="M1077.7278,-787.3586C1100.8748,-781.32 1130.8811,-773.8983 1157.8,-768.5143 1235.4163,-752.9903 1504.8,-767.274 1504.8,-688.1204 1504.8,-688.1204 1504.8,-688.1204 1504.8,-248.9694 1504.8,-134.4501 1367.3109,-207.9289 1254.8,-186.5755 1146.775,-166.0735 1018.8822,-151.5516 947.9943,-144.3487"/>
<polygon fill="#000000" stroke="#000000" points="948.2583,-140.8576 937.9582,-143.3392 947.5577,-147.8225 948.2583,-140.8576"/>
<text text-anchor="middle" x="1520.8" y="-464.8449" font-family="Times,serif" font-size="14.00" fill="#000000"> 1/36 </text>
</g>
<!-- l4 -->
<!-- l3&#45;&gt;l4 -->
<!-- 16&#45;&gt;19 -->
<g id="edge17" class="edge">
<title>16&#45;&gt;19</title>
<path fill="none" stroke="#000000" d="M396.3086,-717.6295C394.7958,-728.5855 395.1879,-740.7195 400.8,-750.5143 434.351,-809.0708 469.5908,-801.1379 531.8,-827.302 614.1348,-861.9306 715.6823,-885.7696 775.6151,-898.0423"/>
<polygon fill="#000000" stroke="#000000" points="775.0921,-901.5073 785.587,-900.056 776.4777,-894.6458 775.0921,-901.5073"/>
<text text-anchor="middle" x="547.8" y="-794.2082" font-family="Times,serif" font-size="14.00" fill="#000000"> 7/36 </text>
</g>
<!-- 16&#45;&gt;18 -->
<g id="edge18" class="edge">
<title>16&#45;&gt;18</title>
<path fill="none" stroke="#000000" d="M428.9052,-716.9952C440.0161,-728.7787 454.0123,-741.682 468.8,-750.5143 499.5302,-768.8685 538.0873,-780.8156 568.5475,-788.1235"/>
<polygon fill="#000000" stroke="#000000" points="568.0135,-791.5921 578.544,-790.4266 569.5851,-784.7708 568.0135,-791.5921"/>
<text text-anchor="middle" x="484.8" y="-739.3143" font-family="Times,serif" font-size="14.00" fill="#000000"> 5/36 </text>
</g>
<!-- 16&#45;&gt;13 -->
<g id="edge19" class="edge">
<title>16&#45;&gt;13</title>
<path fill="none" stroke="#000000" d="M427.7358,-658.6426C437.8217,-647.1767 450.414,-634.6739 463.8,-625.7265 486.6186,-610.4743 515.0419,-599.1561 538.917,-591.4126"/>
<polygon fill="#000000" stroke="#000000" points="540.001,-594.7408 548.4998,-588.4145 537.9109,-588.0601 540.001,-594.7408"/>
<text text-anchor="middle" x="479.8" y="-629.5265" font-family="Times,serif" font-size="14.00" fill="#000000"> 9/36 </text>
</g>
<!-- 16&#45;&gt;11 -->
<g id="edge20" class="edge">
<title>16&#45;&gt;11</title>
<path fill="none" stroke="#000000" d="M373.1218,-668.4945C353.4478,-654.3198 329.8681,-633.2241 318.8,-607.7265 308.3962,-583.7593 307.2448,-572.3726 318.8,-548.9388 332.1707,-521.8232 359.6058,-501.6656 383.605,-488.3167"/>
<polygon fill="#000000" stroke="#000000" points="385.4128,-491.3195 392.5982,-483.5337 382.1257,-485.1393 385.4128,-491.3195"/>
<text text-anchor="middle" x="338.3" y="-574.6326" font-family="Times,serif" font-size="14.00" fill="#000000"> 11/36 </text>
</g>
<!-- 6 -->
<g id="node21" class="node">
<title>6</title>
<polygon fill="none" stroke="#000000" points="458.014,-248.9694 434.407,-278.2575 387.193,-278.2575 363.586,-248.9694 387.193,-219.6812 434.407,-219.6812 458.014,-248.9694"/>
<text text-anchor="start" x="405.3" y="-252.7694" font-family="Times,serif" font-size="14.00" fill="#000000"> </text>
<text text-anchor="start" x="409.3" y="-252.7694" font-family="Times,serif" font-weight="bold" font-size="14.00" fill="#000000">6</text>
<text text-anchor="start" x="389.8" y="-238.7694" font-family="Times,serif" font-size="14.00" fill="#000000">0.0386 </text>
</g>
<!-- 16&#45;&gt;6 -->
<g id="edge21" class="edge">
<title>16&#45;&gt;6</title>
<path fill="none" stroke="#000000" d="M361.0793,-683.165C303.0415,-673.8804 207.8,-648.0267 207.8,-578.3326 207.8,-578.3326 207.8,-578.3326 207.8,-358.7571 207.8,-329.0458 209.6839,-316.2036 231.8,-296.3633 250.4317,-279.6488 312.6297,-265.7322 358.4979,-257.3944"/>
<polygon fill="#000000" stroke="#000000" points="359.3655,-260.7951 368.5989,-255.5995 358.1408,-253.9031 359.3655,-260.7951"/>
<text text-anchor="middle" x="223.8" y="-464.8449" font-family="Times,serif" font-size="14.00" fill="#000000"> 1/36 </text>
</g>
<!-- 4 -->
<g id="node23" class="node">
<title>4</title>
<polygon fill="none" stroke="#000000" points="1285.014,-248.9694 1261.407,-278.2575 1214.193,-278.2575 1190.586,-248.9694 1214.193,-219.6812 1261.407,-219.6812 1285.014,-248.9694"/>
<text text-anchor="start" x="1232.3" y="-252.7694" font-family="Times,serif" font-size="14.00" fill="#000000"> </text>
<text text-anchor="start" x="1236.3" y="-252.7694" font-family="Times,serif" font-weight="bold" font-size="14.00" fill="#000000">4</text>
<text text-anchor="start" x="1216.8" y="-238.7694" font-family="Times,serif" font-size="14.00" fill="#000000">0.0436 </text>
</g>
<!-- 16&#45;&gt;4 -->
<g id="edge22" class="edge">
<title>16&#45;&gt;4</title>
<path fill="none" stroke="#000000" d="M423.2333,-658.7053C436.8954,-636.8678 453.3859,-610.4185 454.8,-607.7265 475.4944,-568.3313 458.9207,-542.2622 494.8,-515.9388 525.2514,-493.5975 629.0478,-512.7274 663.8,-497.9388 701.1831,-482.0305 699.2337,-460.499 733.8,-439.151 782.4099,-409.1298 805.3851,-421.4654 851.8,-388.151 880.379,-367.6383 874.2617,-346.8258 904.8,-329.3633 939.4551,-309.5466 955.2556,-324.9314 992.8,-311.3633 1006.0772,-306.565 1007.3152,-300.5429 1020.8,-296.3633 1090.8393,-274.6543 1114.9205,-300.5816 1184.8,-278.3633 1189.0318,-277.0178 1193.3087,-275.317 1197.5008,-273.4148"/>
<polygon fill="#000000" stroke="#000000" points="1199.0666,-276.5452 1206.4924,-268.9882 1195.9747,-270.265 1199.0666,-276.5452"/>
<text text-anchor="middle" x="749.8" y="-464.8449" font-family="Times,serif" font-size="14.00" fill="#000000"> 3/36 </text>
</g>
<!-- 15&#45;&gt;19 -->
<g id="edge23" class="edge">
<title>15&#45;&gt;19</title>
<path fill="none" stroke="#000000" d="M833.5883,-717.6651C837.1729,-732.7592 841.0195,-751.488 842.8,-768.5143 845.5175,-794.5005 845.3623,-801.3001 842.8,-827.302 841.4785,-840.7121 838.9457,-855.2004 836.2784,-868.1349"/>
<polygon fill="#000000" stroke="#000000" points="832.8109,-867.6124 834.1311,-878.1246 839.6545,-869.0835 832.8109,-867.6124"/>
<text text-anchor="middle" x="859.8" y="-794.2082" font-family="Times,serif" font-size="14.00" fill="#000000"> 1/36 </text>
</g>
<!-- 15&#45;&gt;18 -->
<g id="edge24" class="edge">
<title>15&#45;&gt;18</title>
<path fill="none" stroke="#000000" d="M796.917,-711.1744C777.6248,-726.3092 753.8365,-744.3959 742.8,-750.5143 719.0701,-763.6696 690.9377,-774.8052 667.5707,-782.9702"/>
<polygon fill="#000000" stroke="#000000" points="666.2049,-779.7382 657.8747,-786.2849 668.4693,-786.3618 666.2049,-779.7382"/>
<text text-anchor="middle" x="778.8" y="-739.3143" font-family="Times,serif" font-size="14.00" fill="#000000"> 3/36 </text>
</g>
<!-- 15&#45;&gt;17 -->
<g id="edge25" class="edge">
<title>15&#45;&gt;17</title>
<path fill="none" stroke="#000000" d="M857.8699,-706.9895C872.2912,-715.5696 889.479,-725.9273 904.8,-735.5143 915.1455,-741.9879 917.0361,-744.763 927.8,-750.5143 948.6206,-761.639 972.6127,-772.1508 992.9527,-780.4347"/>
<polygon fill="#000000" stroke="#000000" points="991.7307,-783.7156 1002.3146,-784.1965 994.3406,-777.2204 991.7307,-783.7156"/>
<text text-anchor="middle" x="943.8" y="-739.3143" font-family="Times,serif" font-size="14.00" fill="#000000"> 5/36 </text>
</g>
<!-- 15&#45;&gt;13 -->
<g id="edge26" class="edge">
<title>15&#45;&gt;13</title>
<path fill="none" stroke="#000000" d="M785.9117,-678.6163C755.6389,-670.6142 713.4596,-657.7459 678.8,-640.7265 675.8521,-639.279 649.9418,-621.4726 626.5203,-605.252"/>
<polygon fill="#000000" stroke="#000000" points="628.2635,-602.2017 618.051,-599.3809 624.2754,-607.9546 628.2635,-602.2017"/>
<text text-anchor="middle" x="694.8" y="-629.5265" font-family="Times,serif" font-size="14.00" fill="#000000"> 7/36 </text>
</g>
<!-- 15&#45;&gt;12 -->
<g id="edge27" class="edge">
<title>15&#45;&gt;12</title>
<path fill="none" stroke="#000000" d="M850.4722,-659.7451C862.427,-647.6176 877.6753,-634.3063 893.8,-625.7265 924.0626,-609.6241 935.784,-616.9492 968.8,-607.7265 983.4959,-603.6214 999.3689,-598.7206 1013.7252,-594.1085"/>
<polygon fill="#000000" stroke="#000000" points="1014.9559,-597.3889 1023.3887,-590.975 1012.7967,-590.7302 1014.9559,-597.3889"/>
<text text-anchor="middle" x="909.8" y="-629.5265" font-family="Times,serif" font-size="14.00" fill="#000000"> 9/36 </text>
</g>
<!-- 10 -->
<g id="node15" class="node">
<title>10</title>
<polygon fill="none" stroke="#000000" points="869.014,-468.5449 845.407,-497.833 798.193,-497.833 774.586,-468.5449 798.193,-439.2568 845.407,-439.2568 869.014,-468.5449"/>
<text text-anchor="start" x="812.8" y="-472.3449" font-family="Times,serif" font-size="14.00" fill="#000000"> </text>
<text text-anchor="start" x="816.8" y="-472.3449" font-family="Times,serif" font-weight="bold" font-size="14.00" fill="#000000">10</text>
<text text-anchor="start" x="800.8" y="-458.3449" font-family="Times,serif" font-size="14.00" fill="#000000">0.0495 </text>
</g>
<!-- 15&#45;&gt;10 -->
<g id="edge28" class="edge">
<title>15&#45;&gt;10</title>
<path fill="none" stroke="#000000" d="M840.3675,-658.6122C842.6198,-652.8128 844.5955,-646.6788 845.8,-640.7265 850.7877,-616.0787 839.1127,-550.5621 830.3544,-507.8268"/>
<polygon fill="#000000" stroke="#000000" points="833.7778,-507.0982 828.3143,-498.0207 826.9246,-508.524 833.7778,-507.0982"/>
<text text-anchor="middle" x="865.3" y="-574.6326" font-family="Times,serif" font-size="14.00" fill="#000000"> 11/36 </text>
</g>
<!-- 14&#45;&gt;19 -->
<g id="edge29" class="edge">
<title>14&#45;&gt;19</title>
<path fill="none" stroke="#000000" d="M1288.1935,-717.5915C1286.2661,-728.9225 1282.3989,-741.3295 1274.8,-750.5143 1199.2547,-841.8259 1144.0779,-822.3734 1031.8,-860.302 980.6455,-877.5826 920.2201,-890.7081 878.2837,-898.7157"/>
<polygon fill="#000000" stroke="#000000" points="877.4845,-895.3045 868.3031,-900.5915 878.7775,-902.1841 877.4845,-895.3045"/>
<text text-anchor="middle" x="1272.8" y="-794.2082" font-family="Times,serif" font-size="14.00" fill="#000000"> 9/36 </text>
</g>
<!-- 14&#45;&gt;17 -->
<g id="edge30" class="edge">
<title>14&#45;&gt;17</title>
<path fill="none" stroke="#000000" d="M1254.4407,-703.4539C1233.1042,-712.7166 1205.3801,-724.7704 1180.8,-735.5143 1148.1345,-749.7923 1111.2778,-765.9895 1083.3011,-778.3022"/>
<polygon fill="#000000" stroke="#000000" points="1081.5394,-775.2535 1073.7971,-782.4859 1084.3597,-781.6603 1081.5394,-775.2535"/>
<text text-anchor="middle" x="1196.8" y="-739.3143" font-family="Times,serif" font-size="14.00" fill="#000000"> 3/36 </text>
</g>
<!-- 14&#45;&gt;12 -->
<g id="edge31" class="edge">
<title>14&#45;&gt;12</title>
<path fill="none" stroke="#000000" d="M1251.9497,-676.2971C1226.4407,-667.7501 1192.3637,-655.1941 1163.8,-640.7265 1152.9129,-635.2121 1151.1634,-632.1715 1140.8,-625.7265 1128.3349,-617.9745 1114.6319,-609.7501 1102.1429,-602.3669"/>
<polygon fill="#000000" stroke="#000000" points="1103.6915,-599.217 1093.2986,-597.1582 1100.1392,-605.2488 1103.6915,-599.217"/>
<text text-anchor="middle" x="1179.8" y="-629.5265" font-family="Times,serif" font-size="14.00" fill="#000000"> 7/36 </text>
</g>
<!-- 14&#45;&gt;9 -->
<g id="edge32" class="edge">
<title>14&#45;&gt;9</title>
<path fill="none" stroke="#000000" d="M1277.4497,-658.8062C1271.093,-646.9449 1262.2413,-634.1023 1250.8,-625.7265 1224.88,-606.7515 1204.6845,-629.2075 1180.8,-607.7265 1173.0094,-600.7199 1154.1608,-546.5407 1141.4293,-507.8913"/>
<polygon fill="#000000" stroke="#000000" points="1144.6117,-506.3622 1138.175,-497.9468 1137.9588,-508.5394 1144.6117,-506.3622"/>
<text text-anchor="middle" x="1200.3" y="-574.6326" font-family="Times,serif" font-size="14.00" fill="#000000"> 11/36 </text>
</g>
<!-- 14&#45;&gt;6 -->
<g id="edge33" class="edge">
<title>14&#45;&gt;6</title>
<path fill="none" stroke="#000000" d="M1295.3675,-658.6561C1299.5,-629.6186 1302.2211,-584.5538 1287.8,-548.9388 1276.1176,-520.0873 1261.0995,-520.6372 1239.8,-497.9388 1215.3166,-471.8474 1212.5125,-461.7832 1184.8,-439.151 1151.2658,-411.7644 1138.0624,-411.8071 1101.8,-388.151 1063.3294,-363.0544 1058.6146,-348.3728 1016.8,-329.3633 987.1648,-315.8907 977.1511,-320.1304 945.8,-311.3633 923.8661,-305.2296 919.2355,-300.2831 896.8,-296.3633 735.4924,-268.1804 690.7969,-302.2676 528.8,-278.3633 505.4505,-274.9178 479.9911,-268.876 458.7175,-263.1626"/>
<polygon fill="#000000" stroke="#000000" points="459.5197,-259.7534 448.9501,-260.4844 457.6686,-266.5042 459.5197,-259.7534"/>
<text text-anchor="middle" x="1255.8" y="-464.8449" font-family="Times,serif" font-size="14.00" fill="#000000"> 5/36 </text>
</g>
<!-- 14&#45;&gt;4 -->
<g id="edge34" class="edge">
<title>14&#45;&gt;4</title>
<path fill="none" stroke="#000000" d="M1323.8521,-671.4181C1335.5548,-663.7975 1347.3304,-653.5679 1353.8,-640.7265 1383.2581,-582.256 1356.8219,-387.135 1326.8,-329.3633 1315.4764,-307.5731 1295.697,-288.7974 1277.6562,-274.8834"/>
<polygon fill="#000000" stroke="#000000" points="1279.6395,-271.9967 1269.5261,-268.8393 1275.4632,-277.6144 1279.6395,-271.9967"/>
<text text-anchor="middle" x="1378.8" y="-464.8449" font-family="Times,serif" font-size="14.00" fill="#000000"> 1/36 </text>
</g>
<!-- l5 -->
<!-- l4&#45;&gt;l5 -->
<!-- 13&#45;&gt;18 -->
<g id="edge35" class="edge">
<title>13&#45;&gt;18</title>
<path fill="none" stroke="#000000" d="M590.4752,-607.7522C593.2093,-635.9874 597.8876,-679.7882 603.8,-717.5143 605.9037,-730.9377 608.6638,-745.5309 611.298,-758.5542"/>
<polygon fill="#000000" stroke="#000000" points="607.9236,-759.5211 613.3686,-768.6097 614.7797,-758.1092 607.9236,-759.5211"/>
<text text-anchor="middle" x="619.8" y="-684.4204" font-family="Times,serif" font-size="14.00" fill="#000000"> 1/36 </text>
</g>
<!-- 13&#45;&gt;16 -->
<g id="edge36" class="edge">
<title>13&#45;&gt;16</title>
<path fill="none" stroke="#000000" d="M557.2223,-599.3273C532.9401,-615.9561 502.056,-636.9931 495.8,-640.7265 480.5995,-649.7979 463.4877,-658.9682 448.239,-666.7936"/>
<polygon fill="#000000" stroke="#000000" points="446.3481,-663.8285 439.019,-671.4794 449.5196,-670.0688 446.3481,-663.8285"/>
<text text-anchor="middle" x="534.8" y="-629.5265" font-family="Times,serif" font-size="14.00" fill="#000000"> 3/36 </text>
</g>
<!-- 13&#45;&gt;15 -->
<g id="edge37" class="edge">
<title>13&#45;&gt;15</title>
<path fill="none" stroke="#000000" d="M621.4956,-595.4744C630.5636,-599.7645 640.4522,-604.1564 649.8,-607.7265 676.2065,-617.8117 685.135,-613.8808 710.8,-625.7265 721.8807,-630.8409 723.2506,-634.5907 733.8,-640.7265 749.3626,-649.7781 766.8374,-659.0049 782.3431,-666.883"/>
<polygon fill="#000000" stroke="#000000" points="781.203,-670.2276 791.7085,-671.6003 784.352,-663.9759 781.203,-670.2276"/>
<text text-anchor="middle" x="749.8" y="-629.5265" font-family="Times,serif" font-size="14.00" fill="#000000"> 5/36 </text>
</g>
<!-- 13&#45;&gt;11 -->
<g id="edge38" class="edge">
<title>13&#45;&gt;11</title>
<path fill="none" stroke="#000000" d="M546.2802,-571.0983C519.034,-564.5437 484.0832,-552.4855 459.8,-530.9388 452.4334,-524.4023 446.5271,-515.7663 441.8937,-507.0103"/>
<polygon fill="#000000" stroke="#000000" points="445.0107,-505.4161 437.5182,-497.9253 438.704,-508.4536 445.0107,-505.4161"/>
<text text-anchor="middle" x="475.8" y="-519.7388" font-family="Times,serif" font-size="14.00" fill="#000000"> 7/36 </text>
</g>
<!-- 13&#45;&gt;10 -->
<g id="edge39" class="edge">
<title>13&#45;&gt;10</title>
<path fill="none" stroke="#000000" d="M622.3314,-562.4586C657.2985,-546.3436 712.9022,-520.6068 760.8,-497.9388 766.518,-495.2327 772.5275,-492.3655 778.4532,-489.5244"/>
<polygon fill="#000000" stroke="#000000" points="780.145,-492.5946 787.6422,-485.1084 777.1129,-486.2854 780.145,-492.5946"/>
<text text-anchor="middle" x="733.8" y="-519.7388" font-family="Times,serif" font-size="14.00" fill="#000000"> 9/36 </text>
</g>
<!-- 8 -->
<g id="node18" class="node">
<title>8</title>
<polygon fill="none" stroke="#000000" points="647.014,-358.7571 623.407,-388.0453 576.193,-388.0453 552.586,-358.7571 576.193,-329.469 623.407,-329.469 647.014,-358.7571"/>
<text text-anchor="start" x="594.3" y="-362.5571" font-family="Times,serif" font-size="14.00" fill="#000000"> </text>
<text text-anchor="start" x="598.3" y="-362.5571" font-family="Times,serif" font-weight="bold" font-size="14.00" fill="#000000">8</text>
<text text-anchor="start" x="578.8" y="-348.5571" font-family="Times,serif" font-size="14.00" fill="#000000">0.0495 </text>
</g>
<!-- 13&#45;&gt;8 -->
<g id="edge40" class="edge">
<title>13&#45;&gt;8</title>
<path fill="none" stroke="#000000" d="M601.6738,-548.8923C607.9472,-533.9829 614.651,-515.3847 617.8,-497.9388 623.8517,-464.4118 617.9224,-425.9867 611.2947,-398.0167"/>
<polygon fill="#000000" stroke="#000000" points="614.6646,-397.065 608.8423,-388.2133 607.8739,-398.7638 614.6646,-397.065"/>
<text text-anchor="middle" x="640.3" y="-464.8449" font-family="Times,serif" font-size="14.00" fill="#000000"> 11/36 </text>
</g>
<!-- 12&#45;&gt;17 -->
<g id="edge41" class="edge">
<title>12&#45;&gt;17</title>
<path fill="none" stroke="#000000" d="M1080.56,-607.663C1085.2456,-618.252 1087.6475,-630.1871 1082.8,-640.7265 1077.6634,-651.8946 1067.8329,-648.016 1061.8,-658.7265 1044.6187,-689.2295 1039.4537,-729.0632 1038.2425,-758.2969"/>
<polygon fill="#000000" stroke="#000000" points="1034.7369,-758.4582 1037.9603,-768.5508 1041.7342,-758.6509 1034.7369,-758.4582"/>
<text text-anchor="middle" x="1077.8" y="-684.4204" font-family="Times,serif" font-size="14.00" fill="#000000"> 1/36 </text>
</g>
<!-- 12&#45;&gt;15 -->
<g id="edge42" class="edge">
<title>12&#45;&gt;15</title>
<path fill="none" stroke="#000000" d="M1055.3124,-607.6213C1051.6676,-619.4781 1045.6582,-632.3242 1035.8,-640.7265 1012.551,-660.5419 933.3701,-674.3754 879.1653,-681.7871"/>
<polygon fill="#000000" stroke="#000000" points="878.4676,-678.349 869.0179,-683.1399 879.3928,-685.2876 878.4676,-678.349"/>
<text text-anchor="middle" x="1062.8" y="-629.5265" font-family="Times,serif" font-size="14.00" fill="#000000"> 3/36 </text>
</g>
<!-- 12&#45;&gt;14 -->
<g id="edge43" class="edge">
<title>12&#45;&gt;14</title>
<path fill="none" stroke="#000000" d="M1097.838,-591.3048C1137.6035,-605.2367 1195.218,-625.4369 1195.8,-625.7265 1197.341,-626.4935 1225.5457,-645.24 1250.6597,-661.9845"/>
<polygon fill="#000000" stroke="#000000" points="1248.7538,-664.9203 1259.0152,-667.5574 1252.638,-659.0968 1248.7538,-664.9203"/>
<text text-anchor="middle" x="1232.8" y="-629.5265" font-family="Times,serif" font-size="14.00" fill="#000000"> 5/36 </text>
</g>
<!-- 12&#45;&gt;10 -->
<g id="edge44" class="edge">
<title>12&#45;&gt;10</title>
<path fill="none" stroke="#000000" d="M1019.3811,-570.6426C963.3268,-559.95 868.7817,-540.7978 855.8,-530.9388 847.6214,-524.7275 841.1665,-515.9576 836.1792,-506.9502"/>
<polygon fill="#000000" stroke="#000000" points="839.279,-505.3236 831.6715,-497.9495 833.02,-508.4582 839.279,-505.3236"/>
<text text-anchor="middle" x="871.8" y="-519.7388" font-family="Times,serif" font-size="14.00" fill="#000000"> 7/36 </text>
</g>
<!-- 12&#45;&gt;9 -->
<g id="edge45" class="edge">
<title>12&#45;&gt;9</title>
<path fill="none" stroke="#000000" d="M1058.234,-548.9373C1058.5064,-537.9953 1060.3529,-525.8412 1065.8,-515.9388 1070.949,-506.5782 1078.8149,-498.5198 1087.2623,-491.8397"/>
<polygon fill="#000000" stroke="#000000" points="1089.4484,-494.5773 1095.4697,-485.8598 1085.3264,-488.9197 1089.4484,-494.5773"/>
<text text-anchor="middle" x="1081.8" y="-519.7388" font-family="Times,serif" font-size="14.00" fill="#000000"> 9/36 </text>
</g>
<!-- 7 -->
<g id="node19" class="node">
<title>7</title>
<polygon fill="none" stroke="#000000" points="1008.014,-358.7571 984.407,-388.0453 937.193,-388.0453 913.586,-358.7571 937.193,-329.469 984.407,-329.469 1008.014,-358.7571"/>
<text text-anchor="start" x="955.3" y="-362.5571" font-family="Times,serif" font-size="14.00" fill="#000000"> </text>
<text text-anchor="start" x="959.3" y="-362.5571" font-family="Times,serif" font-weight="bold" font-size="14.00" fill="#000000">7</text>
<text text-anchor="start" x="939.8" y="-348.5571" font-family="Times,serif" font-size="14.00" fill="#000000">0.0513 </text>
</g>
<!-- 12&#45;&gt;7 -->
<g id="edge46" class="edge">
<title>12&#45;&gt;7</title>
<path fill="none" stroke="#000000" d="M1028.7438,-559.0675C1008.3434,-544.9126 983.4582,-523.6998 970.8,-497.9388 955.5757,-466.9554 954.2018,-427.34 955.9762,-398.3026"/>
<polygon fill="#000000" stroke="#000000" points="959.4822,-398.3559 956.7525,-388.1187 952.5025,-397.8237 959.4822,-398.3559"/>
<text text-anchor="middle" x="990.3" y="-464.8449" font-family="Times,serif" font-size="14.00" fill="#000000"> 11/36 </text>
</g>
<!-- l6 -->
<!-- l5&#45;&gt;l6 -->
<!-- 11&#45;&gt;17 -->
<g id="edge47" class="edge">
<title>11&#45;&gt;17</title>
<path fill="none" stroke="#000000" d="M460.6346,-486.5915C470.1103,-491.0395 480.6406,-495.2845 490.8,-497.9388 542.7606,-511.5141 686.4402,-487.1866 731.8,-515.9388 771.4008,-541.0405 744.4203,-582.2793 783.8,-607.7265 820.3503,-631.3454 944.5222,-598.9159 978.8,-625.7265 1000.0688,-642.362 1019.6357,-713.2891 1030.3239,-758.7607"/>
<polygon fill="#000000" stroke="#000000" points="1026.9366,-759.6482 1032.5935,-768.6065 1033.7578,-758.0758 1026.9366,-759.6482"/>
<text text-anchor="middle" x="1005.8" y="-629.5265" font-family="Times,serif" font-size="14.00" fill="#000000"> 7/36 </text>
</g>
<!-- 11&#45;&gt;16 -->
<g id="edge48" class="edge">
<title>11&#45;&gt;16</title>
<path fill="none" stroke="#000000" d="M412.6464,-497.8601C405.7721,-512.7388 398.3892,-531.3472 394.8,-548.9388 383.3806,-604.9086 391.2921,-618.8285 393.8,-640.7265 394.1048,-643.3883 394.503,-646.1181 394.9667,-648.8582"/>
<polygon fill="#000000" stroke="#000000" points="391.5401,-649.5734 396.883,-658.7224 398.4117,-648.2384 391.5401,-649.5734"/>
<text text-anchor="middle" x="410.8" y="-574.6326" font-family="Times,serif" font-size="14.00" fill="#000000"> 1/36 </text>
</g>
<!-- 11&#45;&gt;13 -->
<g id="edge49" class="edge">
<title>11&#45;&gt;13</title>
<path fill="none" stroke="#000000" d="M457.755,-490.5479C474.4191,-502.6564 495.6113,-517.8393 514.8,-530.9388 525.435,-538.1989 537.0789,-545.8773 547.8814,-552.891"/>
<polygon fill="#000000" stroke="#000000" points="546.0311,-555.8625 556.3292,-558.3526 549.8317,-549.984 546.0311,-555.8625"/>
<text text-anchor="middle" x="530.8" y="-519.7388" font-family="Times,serif" font-size="14.00" fill="#000000"> 5/36 </text>
</g>
<!-- 11&#45;&gt;8 -->
<g id="edge50" class="edge">
<title>11&#45;&gt;8</title>
<path fill="none" stroke="#000000" d="M450.3955,-439.2434C460.3178,-427.8045 472.6891,-415.2743 485.8,-406.151 505.8628,-392.1902 530.6722,-381.263 552.0184,-373.4368"/>
<polygon fill="#000000" stroke="#000000" points="553.2955,-376.6976 561.553,-370.0595 550.9582,-370.0993 553.2955,-376.6976"/>
<text text-anchor="middle" x="501.8" y="-409.951" font-family="Times,serif" font-size="14.00" fill="#000000"> 9/36 </text>
</g>
<!-- 11&#45;&gt;6 -->
<g id="edge51" class="edge">
<title>11&#45;&gt;6</title>
<path fill="none" stroke="#000000" d="M390.8121,-455.7273C361.6993,-443.4191 323.2302,-421.6868 305.8,-388.151 286.4536,-350.9285 297.1289,-324.9829 327.8,-296.3633 339.1359,-285.7856 353.2539,-276.6157 366.6129,-269.2351"/>
<polygon fill="#000000" stroke="#000000" points="368.5032,-272.1944 375.6968,-264.416 365.2226,-266.0107 368.5032,-272.1944"/>
<text text-anchor="middle" x="325.3" y="-355.0571" font-family="Times,serif" font-size="14.00" fill="#000000"> 11/36 </text>
</g>
<!-- 11&#45;&gt;2 -->
<g id="edge52" class="edge">
<title>11&#45;&gt;2</title>
<path fill="none" stroke="#000000" d="M443.7865,-438.9807C450.1004,-428.2548 457.7651,-416.2901 465.8,-406.151 496.0139,-368.0248 506.2793,-360.3259 543.8,-329.3633 563.7677,-312.8856 569.2384,-309.0596 591.8,-296.3633 608.7895,-286.8026 615.8417,-289.5607 631.8,-278.3633 661.5909,-257.4599 656.8656,-237.0295 688.8,-219.5755 724.2123,-200.2207 739.8424,-215.2817 777.8,-201.5755 778.3084,-201.3919 818.7225,-179.6377 851.7021,-161.8703"/>
<polygon fill="#000000" stroke="#000000" points="853.6242,-164.8104 860.7676,-156.9859 850.3039,-158.648 853.6242,-164.8104"/>
<text text-anchor="middle" x="607.8" y="-300.1633" font-family="Times,serif" font-size="14.00" fill="#000000"> 3/36 </text>
</g>
<!-- 10&#45;&gt;15 -->
<g id="edge53" class="edge">
<title>10&#45;&gt;15</title>
<path fill="none" stroke="#000000" d="M808.9897,-498.0374C795.7235,-532.7744 778.8686,-591.9291 793.8,-640.7265 794.7146,-643.7155 795.8882,-646.6861 797.2434,-649.5977"/>
<polygon fill="#000000" stroke="#000000" points="794.2848,-651.4867 802.0946,-658.6462 800.4541,-648.1791 794.2848,-651.4867"/>
<text text-anchor="middle" x="808.8" y="-574.6326" font-family="Times,serif" font-size="14.00" fill="#000000"> 1/36 </text>
</g>
<!-- 10&#45;&gt;13 -->
<g id="edge54" class="edge">
<title>10&#45;&gt;13</title>
<path fill="none" stroke="#000000" d="M788.9207,-486.4183C779.9968,-490.7027 770.1985,-494.909 760.8,-497.9388 716.9866,-512.063 700.2945,-496.006 658.8,-515.9388 644.8589,-522.6356 631.5594,-532.8586 620.3186,-543.1035"/>
<polygon fill="#000000" stroke="#000000" points="617.7295,-540.7353 612.8829,-550.1566 622.5469,-545.814 617.7295,-540.7353"/>
<text text-anchor="middle" x="674.8" y="-519.7388" font-family="Times,serif" font-size="14.00" fill="#000000"> 3/36 </text>
</g>
<!-- 10&#45;&gt;12 -->
<g id="edge55" class="edge">
<title>10&#45;&gt;12</title>
<path fill="none" stroke="#000000" d="M851.6769,-490.1664C874.9901,-506.9226 904.4553,-527.8053 910.8,-530.9388 942.7002,-546.6934 980.9775,-558.6866 1010.8807,-566.6669"/>
<polygon fill="#000000" stroke="#000000" points="1010.1201,-570.0855 1020.6795,-569.2191 1011.8845,-563.3115 1010.1201,-570.0855"/>
<text text-anchor="middle" x="926.8" y="-519.7388" font-family="Times,serif" font-size="14.00" fill="#000000"> 5/36 </text>
</g>
<!-- 10&#45;&gt;8 -->
<g id="edge56" class="edge">
<title>10&#45;&gt;8</title>
<path fill="none" stroke="#000000" d="M787.4922,-452.1405C764.7538,-441.166 737.1025,-427.5961 725.8,-421.151 715.1985,-415.1057 713.4832,-412.0509 702.8,-406.151 684.1648,-395.8596 662.8925,-385.8052 644.5369,-377.6242"/>
<polygon fill="#000000" stroke="#000000" points="645.7958,-374.3543 635.2334,-373.5256 642.9736,-380.7602 645.7958,-374.3543"/>
<text text-anchor="middle" x="741.8" y="-409.951" font-family="Times,serif" font-size="14.00" fill="#000000"> 7/36 </text>
</g>
<!-- 10&#45;&gt;7 -->
<g id="edge57" class="edge">
<title>10&#45;&gt;7</title>
<path fill="none" stroke="#000000" d="M852.424,-447.366C863.6996,-439.357 876.4772,-430.0296 887.8,-421.151 900.2718,-411.3714 913.5472,-400.2513 925.3097,-390.1347"/>
<polygon fill="#000000" stroke="#000000" points="927.9123,-392.511 933.1827,-383.3201 923.3311,-387.2183 927.9123,-392.511"/>
<text text-anchor="middle" x="921.8" y="-409.951" font-family="Times,serif" font-size="14.00" fill="#000000"> 9/36 </text>
</g>
<!-- 5 -->
<g id="node22" class="node">
<title>5</title>
<polygon fill="none" stroke="#000000" points="792.014,-248.9694 768.407,-278.2575 721.193,-278.2575 697.586,-248.9694 721.193,-219.6812 768.407,-219.6812 792.014,-248.9694"/>
<text text-anchor="start" x="739.3" y="-252.7694" font-family="Times,serif" font-size="14.00" fill="#000000"> </text>
<text text-anchor="start" x="743.3" y="-252.7694" font-family="Times,serif" font-weight="bold" font-size="14.00" fill="#000000">5</text>
<text text-anchor="start" x="723.8" y="-238.7694" font-family="Times,serif" font-size="14.00" fill="#000000">0.0555 </text>
</g>
<!-- 10&#45;&gt;5 -->
<g id="edge58" class="edge">
<title>10&#45;&gt;5</title>
<path fill="none" stroke="#000000" d="M795.7027,-441.828C782.9906,-427.1751 768.7635,-407.9869 760.8,-388.151 747.9677,-356.1876 744.4363,-316.9982 743.8425,-288.3575"/>
<polygon fill="#000000" stroke="#000000" points="747.342,-288.2813 743.7448,-278.3158 740.3423,-288.3494 747.342,-288.2813"/>
<text text-anchor="middle" x="780.3" y="-355.0571" font-family="Times,serif" font-size="14.00" fill="#000000"> 11/36 </text>
</g>
<!-- 9&#45;&gt;18 -->
<g id="edge59" class="edge">
<title>9&#45;&gt;18</title>
<path fill="none" stroke="#000000" d="M1097.9995,-489.0035C1053.2946,-518.0875 967.1909,-571.8331 888.8,-607.7265 866.5636,-617.9081 859.3691,-616.3052 836.8,-625.7265 806.168,-638.5136 797.1428,-639.9064 769.8,-658.7265 725.2878,-689.3644 680.7149,-732.7312 651.8683,-762.8839"/>
<polygon fill="#000000" stroke="#000000" points="649.2248,-760.585 644.8828,-770.2493 654.3038,-765.4021 649.2248,-760.585"/>
<text text-anchor="middle" x="852.8" y="-629.5265" font-family="Times,serif" font-size="14.00" fill="#000000"> 9/36 </text>
</g>
<!-- 9&#45;&gt;14 -->
<g id="edge60" class="edge">
<title>9&#45;&gt;14</title>
<path fill="none" stroke="#000000" d="M1158.308,-490.8389C1177.1967,-505.9767 1201.5024,-527.1415 1219.8,-548.9388 1239.4983,-572.4046 1237.5512,-583.1166 1255.8,-607.7265 1262.1755,-616.3243 1266.6332,-616.3525 1271.8,-625.7265 1275.7851,-632.9566 1278.9631,-641.1555 1281.4698,-649.1774"/>
<polygon fill="#000000" stroke="#000000" points="1278.1033,-650.1352 1284.2035,-658.7976 1284.8367,-648.2217 1278.1033,-650.1352"/>
<text text-anchor="middle" x="1271.8" y="-574.6326" font-family="Times,serif" font-size="14.00" fill="#000000"> 1/36 </text>
</g>
<!-- 9&#45;&gt;12 -->
<g id="edge61" class="edge">
<title>9&#45;&gt;12</title>
<path fill="none" stroke="#000000" d="M1115.6278,-498.0973C1110.5083,-508.7086 1104.3098,-520.6012 1097.8,-530.9388 1095.6706,-534.3202 1093.3508,-537.7501 1090.9449,-541.1384"/>
<polygon fill="#000000" stroke="#000000" points="1087.9558,-539.2952 1084.8473,-549.4237 1093.5936,-543.4443 1087.9558,-539.2952"/>
<text text-anchor="middle" x="1121.8" y="-519.7388" font-family="Times,serif" font-size="14.00" fill="#000000"> 3/36 </text>
</g>
<!-- 9&#45;&gt;7 -->
<g id="edge62" class="edge">
<title>9&#45;&gt;7</title>
<path fill="none" stroke="#000000" d="M1094.8136,-451.6042C1086.0712,-447.4023 1076.6368,-443.0024 1067.8,-439.151 1047.6745,-430.3796 1040.1052,-433.2711 1021.8,-421.151 1011.0358,-414.024 1000.6785,-404.7278 991.6501,-395.4965"/>
<polygon fill="#000000" stroke="#000000" points="994.1226,-393.017 984.7119,-388.1498 989.0333,-397.8233 994.1226,-393.017"/>
<text text-anchor="middle" x="1037.8" y="-409.951" font-family="Times,serif" font-size="14.00" fill="#000000"> 7/36 </text>
</g>
<!-- 9&#45;&gt;4 -->
<g id="edge63" class="edge">
<title>9&#45;&gt;4</title>
<path fill="none" stroke="#000000" d="M1152.8019,-439.5331C1157.7784,-433.4741 1162.9745,-427.1157 1167.8,-421.151 1200.5833,-380.6283 1207.8914,-369.7843 1240.8,-329.3633 1247.3748,-321.2876 1252.2549,-321.1549 1255.8,-311.3633 1258.4986,-303.9097 1258.3569,-295.8437 1256.7316,-288.0639"/>
<polygon fill="#000000" stroke="#000000" points="1260.0922,-287.0854 1253.9816,-278.4303 1253.3611,-289.0069 1260.0922,-287.0854"/>
<text text-anchor="middle" x="1260.3" y="-355.0571" font-family="Times,serif" font-size="14.00" fill="#000000"> 11/36 </text>
</g>
<!-- 9&#45;&gt;3 -->
<g id="edge64" class="edge">
<title>9&#45;&gt;3</title>
<path fill="none" stroke="#000000" d="M1137.265,-439.0197C1139.051,-428.5207 1139.6486,-416.6939 1136.8,-406.151 1108.4568,-301.2513 1071.1652,-276.8116 978.8,-219.5755 874.6217,-155.0192 829.0173,-186.6592 707.8,-168.5755 677.2075,-164.0116 643.2592,-156.9955 616.3406,-150.9624"/>
<polygon fill="#000000" stroke="#000000" points="616.9162,-147.5041 606.3897,-148.7055 615.3678,-154.3308 616.9162,-147.5041"/>
<text text-anchor="middle" x="1109.8" y="-300.1633" font-family="Times,serif" font-size="14.00" fill="#000000"> 5/36 </text>
</g>
<!-- l7 -->
<!-- l6&#45;&gt;l7 -->
<!-- 8&#45;&gt;13 -->
<g id="edge65" class="edge">
<title>8&#45;&gt;13</title>
<path fill="none" stroke="#000000" d="M591.5545,-388.2738C587.7594,-403.3607 583.6864,-422.0916 581.8,-439.151 578.0993,-472.6174 580.1979,-510.845 582.8828,-538.7585"/>
<polygon fill="#000000" stroke="#000000" points="579.4232,-539.3316 583.9296,-548.9202 586.3864,-538.6142 579.4232,-539.3316"/>
<text text-anchor="middle" x="597.8" y="-464.8449" font-family="Times,serif" font-size="14.00" fill="#000000"> 1/36 </text>
</g>
<!-- 8&#45;&gt;11 -->
<g id="edge66" class="edge">
<title>8&#45;&gt;11</title>
<path fill="none" stroke="#000000" d="M571.4221,-382.2031C556.0077,-394.4568 536.3532,-409.3225 517.8,-421.151 503.1261,-430.5063 486.4129,-439.6821 471.4049,-447.4302"/>
<polygon fill="#000000" stroke="#000000" points="469.6374,-444.4025 462.3141,-452.0589 472.8136,-450.6405 469.6374,-444.4025"/>
<text text-anchor="middle" x="555.8" y="-409.951" font-family="Times,serif" font-size="14.00" fill="#000000"> 3/36 </text>
</g>
<!-- 8&#45;&gt;10 -->
<g id="edge67" class="edge">
<title>8&#45;&gt;10</title>
<path fill="none" stroke="#000000" d="M626.2652,-384.7242C642.8224,-400.7328 661.9097,-418.67 666.8,-421.151 704.734,-440.3967 720.4107,-425.806 760.8,-439.151 766.9531,-441.1841 773.2848,-443.7045 779.4327,-446.4081"/>
<polygon fill="#000000" stroke="#000000" points="778.3434,-449.7598 788.8906,-450.7638 781.2716,-443.4016 778.3434,-449.7598"/>
<text text-anchor="middle" x="682.8" y="-409.951" font-family="Times,serif" font-size="14.00" fill="#000000"> 5/36 </text>
</g>
<!-- 8&#45;&gt;6 -->
<g id="edge68" class="edge">
<title>8&#45;&gt;6</title>
<path fill="none" stroke="#000000" d="M558.1781,-351.7368C514.2684,-343.5437 448.9551,-328.8626 430.8,-311.3633 424.3139,-305.1114 419.9268,-296.7565 416.9607,-288.198"/>
<polygon fill="#000000" stroke="#000000" points="420.3126,-287.1893 414.1797,-278.5499 413.5864,-289.1282 420.3126,-287.1893"/>
<text text-anchor="middle" x="446.8" y="-300.1633" font-family="Times,serif" font-size="14.00" fill="#000000"> 7/36 </text>
</g>
<!-- 8&#45;&gt;5 -->
<g id="edge69" class="edge">
<title>8&#45;&gt;5</title>
<path fill="none" stroke="#000000" d="M632.6425,-340.8069C646.951,-332.4842 663.6495,-322.0739 677.8,-311.3633 689.3241,-302.6406 701.1145,-292.2427 711.5281,-282.46"/>
<polygon fill="#000000" stroke="#000000" points="714.0261,-284.9141 718.844,-275.4781 709.1933,-279.8501 714.0261,-284.9141"/>
<text text-anchor="middle" x="711.8" y="-300.1633" font-family="Times,serif" font-size="14.00" fill="#000000"> 9/36 </text>
</g>
<!-- 8&#45;&gt;3 -->
<g id="edge70" class="edge">
<title>8&#45;&gt;3</title>
<path fill="none" stroke="#000000" d="M568.3904,-338.9078C559.3852,-331.4676 550.6885,-322.1579 545.8,-311.3633 522.9206,-260.8412 534.3173,-240.835 545.8,-186.5755 546.3939,-183.769 547.1655,-180.9267 548.0613,-178.1009"/>
<polygon fill="#000000" stroke="#000000" points="551.3759,-179.2274 551.5079,-168.6334 544.7982,-176.8328 551.3759,-179.2274"/>
<text text-anchor="middle" x="558.3" y="-245.2694" font-family="Times,serif" font-size="14.00" fill="#000000"> 11/36 </text>
</g>
<!-- 7&#45;&gt;12 -->
<g id="edge71" class="edge">
<title>7&#45;&gt;12</title>
<path fill="none" stroke="#000000" d="M980.6211,-388.1334C990.1697,-403.0271 1001.3516,-421.6305 1009.8,-439.151 1025.5979,-471.9133 1039.4971,-510.9235 1048.7789,-539.2965"/>
<polygon fill="#000000" stroke="#000000" points="1045.4633,-540.4189 1051.8649,-548.8611 1052.1251,-538.2694 1045.4633,-540.4189"/>
<text text-anchor="middle" x="1049.8" y="-464.8449" font-family="Times,serif" font-size="14.00" fill="#000000"> 1/36 </text>
</g>
<!-- 7&#45;&gt;10 -->
<g id="edge72" class="edge">
<title>7&#45;&gt;10</title>
<path fill="none" stroke="#000000" d="M926.6466,-375.1736C917.3433,-379.5132 907.23,-384.111 897.8,-388.151 877.6201,-396.7966 867.8963,-391.2217 851.8,-406.151 844.8106,-412.6336 839.2725,-421.0883 834.9573,-429.6708"/>
<polygon fill="#000000" stroke="#000000" points="831.693,-428.3945 830.744,-438.9468 838.0663,-431.2894 831.693,-428.3945"/>
<text text-anchor="middle" x="867.8" y="-409.951" font-family="Times,serif" font-size="14.00" fill="#000000"> 3/36 </text>
</g>
<!-- 7&#45;&gt;9 -->
<g id="edge73" class="edge">
<title>7&#45;&gt;9</title>
<path fill="none" stroke="#000000" d="M995.8353,-374.3311C1013.7123,-382.839 1035.4902,-394.0867 1053.8,-406.151 1067.4904,-415.1716 1081.5504,-426.291 1093.7433,-436.6323"/>
<polygon fill="#000000" stroke="#000000" points="1091.6035,-439.4087 1101.4635,-443.2858 1096.1734,-434.1062 1091.6035,-439.4087"/>
<text text-anchor="middle" x="1088.8" y="-409.951" font-family="Times,serif" font-size="14.00" fill="#000000"> 5/36 </text>
</g>
<!-- 7&#45;&gt;5 -->
<g id="edge74" class="edge">
<title>7&#45;&gt;5</title>
<path fill="none" stroke="#000000" d="M922.0245,-347.9847C879.4939,-335.9983 815.8959,-317.5076 805.8,-311.3633 794.6699,-304.5895 784.1331,-295.3246 775.0474,-286.007"/>
<polygon fill="#000000" stroke="#000000" points="777.4764,-283.4803 768.0882,-278.5698 772.3651,-288.2631 777.4764,-283.4803"/>
<text text-anchor="middle" x="821.8" y="-300.1633" font-family="Times,serif" font-size="14.00" fill="#000000"> 7/36 </text>
</g>
<!-- 7&#45;&gt;4 -->
<g id="edge75" class="edge">
<title>7&#45;&gt;4</title>
<path fill="none" stroke="#000000" d="M1003.5947,-353.1019C1043.6018,-346.695 1104.2864,-334.061 1152.8,-311.3633 1158.192,-308.8405 1180.0501,-292.7724 1200.2487,-277.5755"/>
<polygon fill="#000000" stroke="#000000" points="1202.5822,-280.1994 1208.4555,-271.3815 1198.3652,-274.6121 1202.5822,-280.1994"/>
<text text-anchor="middle" x="1188.8" y="-300.1633" font-family="Times,serif" font-size="14.00" fill="#000000"> 9/36 </text>
</g>
<!-- 7&#45;&gt;2 -->
<g id="edge76" class="edge">
<title>7&#45;&gt;2</title>
<path fill="none" stroke="#000000" d="M951.7641,-329.1442C939.8676,-290.1566 918.9209,-221.5089 905.7323,-178.2867"/>
<polygon fill="#000000" stroke="#000000" points="909.0657,-177.2184 902.7995,-168.6752 902.3704,-179.2614 909.0657,-177.2184"/>
<text text-anchor="middle" x="955.3" y="-245.2694" font-family="Times,serif" font-size="14.00" fill="#000000"> 11/36 </text>
</g>
<!-- l8 -->
<!-- l7&#45;&gt;l8 -->
<!-- 6&#45;&gt;16 -->
<g id="edge77" class="edge">
<title>6&#45;&gt;16</title>
<path fill="none" stroke="#000000" d="M372.7557,-260.5432C352.5074,-268.1845 328.2564,-279.8706 310.8,-296.3633 298.6561,-307.8366 296.928,-313.1747 292.8,-329.3633 262.1924,-449.3957 271.0176,-489.1338 306.8,-607.7265 311.6887,-623.929 313.9409,-628.6525 325.8,-640.7265 335.991,-651.1022 348.9092,-660.0864 361.3317,-667.3587"/>
<polygon fill="#000000" stroke="#000000" points="359.8078,-670.5167 370.2434,-672.3469 363.2269,-664.4084 359.8078,-670.5167"/>
<text text-anchor="middle" x="298.3" y="-464.8449" font-family="Times,serif" font-size="14.00" fill="#000000"> 11/36 </text>
</g>
<!-- 6&#45;&gt;14 -->
<g id="edge78" class="edge">
<title>6&#45;&gt;14</title>
<path fill="none" stroke="#000000" d="M448.9435,-260.5297C471.8652,-266.9583 501.7436,-274.4339 528.8,-278.3633 707.5466,-304.3221 758.514,-257.0258 934.8,-296.3633 951.7173,-300.1383 954.1646,-306.4943 970.8,-311.3633 1014.9803,-324.2942 1029.3923,-314.0372 1072.8,-329.3633 1084.7061,-333.567 1263.7859,-429.3939 1271.8,-439.151 1325.6275,-504.6856 1309.0433,-540.9646 1311.8,-625.7265 1312.0167,-632.3897 1313.2373,-634.2166 1311.8,-640.7265 1311.1766,-643.55 1310.3674,-646.4052 1309.4283,-649.2403"/>
<polygon fill="#000000" stroke="#000000" points="1306.1035,-648.1365 1305.8162,-658.7274 1312.6454,-650.6272 1306.1035,-648.1365"/>
<text text-anchor="middle" x="1320.8" y="-464.8449" font-family="Times,serif" font-size="14.00" fill="#000000"> 7/36 </text>
</g>
<!-- 6&#45;&gt;11 -->
<g id="edge79" class="edge">
<title>6&#45;&gt;11</title>
<path fill="none" stroke="#000000" d="M379.1107,-268.4768C369.8367,-275.9484 360.8418,-285.3632 355.8,-296.3633 353.0222,-302.4237 354.7552,-304.779 355.8,-311.3633 361.4251,-346.8108 366.103,-355.407 380.8,-388.151 387.2011,-402.4122 395.4713,-417.3688 403.2858,-430.4612"/>
<polygon fill="#000000" stroke="#000000" points="400.4097,-432.4682 408.5944,-439.1959 406.3916,-428.8326 400.4097,-432.4682"/>
<text text-anchor="middle" x="396.8" y="-355.0571" font-family="Times,serif" font-size="14.00" fill="#000000"> 1/36 </text>
</g>
<!-- 6&#45;&gt;8 -->
<g id="edge80" class="edge">
<title>6&#45;&gt;8</title>
<path fill="none" stroke="#000000" d="M437.7769,-274.7978C451.4275,-286.9555 468.6983,-301.02 485.8,-311.3633 506.7145,-324.0126 531.6167,-334.7968 552.8041,-342.8675"/>
<polygon fill="#000000" stroke="#000000" points="551.657,-346.1751 562.2498,-346.3818 554.0979,-339.6144 551.657,-346.1751"/>
<text text-anchor="middle" x="501.8" y="-300.1633" font-family="Times,serif" font-size="14.00" fill="#000000"> 5/36 </text>
</g>
<!-- 6&#45;&gt;3 -->
<g id="edge81" class="edge">
<title>6&#45;&gt;3</title>
<path fill="none" stroke="#000000" d="M438.4211,-224.1288C452.2241,-212.205 469.4372,-198.052 485.8,-186.5755 498.0364,-177.9932 511.9041,-169.4759 524.6629,-162.0792"/>
<polygon fill="#000000" stroke="#000000" points="526.7711,-164.9057 533.718,-156.9063 523.2988,-158.8276 526.7711,-164.9057"/>
<text text-anchor="middle" x="501.8" y="-190.3755" font-family="Times,serif" font-size="14.00" fill="#000000"> 9/36 </text>
</g>
<!-- 1 -->
<g id="node28" class="node">
<title>1</title>
<polygon fill="none" stroke="#000000" points="786.014,-29.3939 762.407,-58.682 715.193,-58.682 691.586,-29.3939 715.193,-.1057 762.407,-.1057 786.014,-29.3939"/>
<text text-anchor="start" x="729.8" y="-33.1939" font-family="Times,serif" font-size="14.00" fill="#000000"> </text>
<text text-anchor="start" x="733.8" y="-33.1939" font-family="Times,serif" font-weight="bold" font-size="14.00" fill="#000000">11</text>
<text text-anchor="start" x="717.8" y="-19.1939" font-family="Times,serif" font-size="14.00" fill="#000000">0.0834 </text>
</g>
<!-- 6&#45;&gt;1 -->
<g id="edge82" class="edge">
<title>6&#45;&gt;1</title>
<path fill="none" stroke="#000000" d="M410.7458,-219.5548C411.5843,-208.8451 413.5574,-196.8524 417.8,-186.5755 434.4321,-146.2878 443.2075,-134.9452 478.8,-109.7878 541.6369,-65.3734 629.7521,-44.9326 685.5502,-35.938"/>
<polygon fill="#000000" stroke="#000000" points="686.2312,-39.3744 695.5795,-34.3885 685.1623,-32.4565 686.2312,-39.3744"/>
<text text-anchor="middle" x="494.8" y="-135.4816" font-family="Times,serif" font-size="14.00" fill="#000000"> 3/36 </text>
</g>
<!-- 5&#45;&gt;10 -->
<g id="edge83" class="edge">
<title>5&#45;&gt;10</title>
<path fill="none" stroke="#000000" d="M763.5153,-278.4977C770.3498,-288.9969 778.2561,-300.8231 785.8,-311.3633 791.6986,-319.6047 795.7703,-320.0639 799.8,-329.3633 813.5741,-361.1498 818.8413,-400.358 820.7983,-429.0509"/>
<polygon fill="#000000" stroke="#000000" points="817.3086,-429.3313 821.3792,-439.1129 824.297,-428.9278 817.3086,-429.3313"/>
<text text-anchor="middle" x="831.8" y="-355.0571" font-family="Times,serif" font-size="14.00" fill="#000000"> 1/36 </text>
</g>
<!-- 5&#45;&gt;8 -->
<g id="edge84" class="edge">
<title>5&#45;&gt;8</title>
<path fill="none" stroke="#000000" d="M710.4487,-265.4727C701.474,-269.7246 691.7945,-274.2578 682.8,-278.3633 664.6958,-286.6268 657.0722,-283.6036 641.8,-296.3633 633.5987,-303.2153 626.3485,-312.0634 620.2796,-320.9309"/>
<polygon fill="#000000" stroke="#000000" points="617.3124,-319.0741 614.8304,-329.3741 623.1938,-322.8699 617.3124,-319.0741"/>
<text text-anchor="middle" x="657.8" y="-300.1633" font-family="Times,serif" font-size="14.00" fill="#000000"> 3/36 </text>
</g>
<!-- 5&#45;&gt;7 -->
<g id="edge85" class="edge">
<title>5&#45;&gt;7</title>
<path fill="none" stroke="#000000" d="M779.2775,-265.4458C797.0072,-274.1921 818.8217,-285.3806 837.8,-296.3633 848.3629,-302.4759 850.1504,-305.403 860.8,-311.3633 878.4819,-321.2594 898.5678,-331.0457 916.0755,-339.133"/>
<polygon fill="#000000" stroke="#000000" points="914.955,-342.469 925.5052,-343.441 917.8639,-336.102 914.955,-342.469"/>
<text text-anchor="middle" x="876.8" y="-300.1633" font-family="Times,serif" font-size="14.00" fill="#000000"> 5/36 </text>
</g>
<!-- 5&#45;&gt;3 -->
<g id="edge86" class="edge">
<title>5&#45;&gt;3</title>
<path fill="none" stroke="#000000" d="M708.9734,-234.1328C689.705,-225.5866 665.8511,-214.0764 645.8,-201.5755 630.9391,-192.3104 615.6084,-180.7391 602.4525,-170.0865"/>
<polygon fill="#000000" stroke="#000000" points="604.5127,-167.2493 594.5657,-163.6013 600.0667,-172.6561 604.5127,-167.2493"/>
<text text-anchor="middle" x="661.8" y="-190.3755" font-family="Times,serif" font-size="14.00" fill="#000000"> 7/36 </text>
</g>
<!-- 5&#45;&gt;2 -->
<g id="edge87" class="edge">
<title>5&#45;&gt;2</title>
<path fill="none" stroke="#000000" d="M784.3585,-239.2835C807.791,-231.9783 836.8907,-219.9998 857.8,-201.5755 865.3211,-194.9483 871.6617,-186.3542 876.8237,-177.6746"/>
<polygon fill="#000000" stroke="#000000" points="880.0201,-179.1258 881.7765,-168.6775 873.8879,-175.75 880.0201,-179.1258"/>
<text text-anchor="middle" x="885.8" y="-190.3755" font-family="Times,serif" font-size="14.00" fill="#000000"> 9/36 </text>
</g>
<!-- 5&#45;&gt;1 -->
<g id="edge88" class="edge">
<title>5&#45;&gt;1</title>
<path fill="none" stroke="#000000" d="M731.3861,-219.4834C725.3212,-204.5628 718.8411,-185.9684 715.8,-168.5755 711.2999,-142.8381 712.1715,-135.6625 715.8,-109.7878 717.7279,-96.0402 721.4246,-81.3458 725.2998,-68.3301"/>
<polygon fill="#000000" stroke="#000000" points="728.6524,-69.3356 728.2716,-58.7476 721.9665,-67.262 728.6524,-69.3356"/>
<text text-anchor="middle" x="735.3" y="-135.4816" font-family="Times,serif" font-size="14.00" fill="#000000"> 11/36 </text>
</g>
<!-- 4&#45;&gt;16 -->
<g id="edge89" class="edge">
<title>4&#45;&gt;16</title>
<path fill="none" stroke="#000000" d="M1206.5177,-269.0689C1199.5983,-272.721 1192.1363,-276.0886 1184.8,-278.3633 1104.2051,-303.3525 1079.5461,-286.039 995.8,-296.3633 951.6322,-301.8083 940.907,-305.4459 896.8,-311.3633 828.5015,-320.5262 807.4064,-305.3913 742.8,-329.3633 699.048,-345.5973 696.4717,-365.2689 655.8,-388.151 632.1415,-401.4614 566.6586,-423.0547 544.8,-439.151 519.3972,-457.8572 468.6867,-520.6123 454.8,-548.9388 438.8262,-581.5225 425.2501,-620.5512 416.2931,-648.9768"/>
<polygon fill="#000000" stroke="#000000" points="412.94,-647.9731 413.3212,-658.5611 419.626,-650.0463 412.94,-647.9731"/>
<text text-anchor="middle" x="560.8" y="-464.8449" font-family="Times,serif" font-size="14.00" fill="#000000"> 9/36 </text>
</g>
<!-- 4&#45;&gt;14 -->
<g id="edge90" class="edge">
<title>4&#45;&gt;14</title>
<path fill="none" stroke="#000000" d="M1280.8885,-254.3819C1337.4965,-264.1779 1429.8,-290.6006 1429.8,-358.7571 1429.8,-578.3326 1429.8,-578.3326 1429.8,-578.3326 1429.8,-626.3729 1378.1246,-656.5637 1337.564,-672.8616"/>
<polygon fill="#000000" stroke="#000000" points="1336.1346,-669.6613 1328.0556,-676.5156 1338.6456,-676.1955 1336.1346,-669.6613"/>
<text text-anchor="middle" x="1449.3" y="-464.8449" font-family="Times,serif" font-size="14.00" fill="#000000"> 11/36 </text>
</g>
<!-- 4&#45;&gt;9 -->
<g id="edge91" class="edge">
<title>4&#45;&gt;9</title>
<path fill="none" stroke="#000000" d="M1260.5507,-278.3725C1264.3395,-284.1312 1267.9555,-290.2777 1270.8,-296.3633 1288.157,-333.4972 1300.9019,-353.0098 1279.8,-388.151 1273.6038,-398.4696 1214.7078,-427.956 1172.3381,-448.1977"/>
<polygon fill="#000000" stroke="#000000" points="1170.8336,-445.0375 1163.3058,-452.4929 1173.8398,-451.3592 1170.8336,-445.0375"/>
<text text-anchor="middle" x="1306.8" y="-355.0571" font-family="Times,serif" font-size="14.00" fill="#000000"> 1/36 </text>
</g>
<!-- 4&#45;&gt;7 -->
<g id="edge92" class="edge">
<title>4&#45;&gt;7</title>
<path fill="none" stroke="#000000" d="M1230.0038,-278.5118C1225.4157,-290.4134 1218.3715,-303.2246 1207.8,-311.3633 1178.3442,-334.0402 1078.8024,-347.5177 1015.4368,-354.0013"/>
<polygon fill="#000000" stroke="#000000" points="1014.8128,-350.546 1005.2088,-355.0195 1015.5063,-357.5116 1014.8128,-350.546"/>
<text text-anchor="middle" x="1235.8" y="-300.1633" font-family="Times,serif" font-size="14.00" fill="#000000"> 3/36 </text>
</g>
<!-- 4&#45;&gt;2 -->
<g id="edge93" class="edge">
<title>4&#45;&gt;2</title>
<path fill="none" stroke="#000000" d="M1208.1459,-226.4594C1185.8372,-209.6965 1158.0739,-189.2626 1151.8,-186.5755 1085.7282,-158.2774 1003.0613,-146.8577 949.375,-142.2607"/>
<polygon fill="#000000" stroke="#000000" points="949.6171,-138.769 939.3682,-141.4542 949.0547,-145.7464 949.6171,-138.769"/>
<text text-anchor="middle" x="1188.8" y="-190.3755" font-family="Times,serif" font-size="14.00" fill="#000000"> 7/36 </text>
</g>
<!-- 4&#45;&gt;1 -->
<g id="edge94" class="edge">
<title>4&#45;&gt;1</title>
<path fill="none" stroke="#000000" d="M1255.8119,-219.399C1260.1294,-208.3117 1261.7419,-196.1033 1254.8,-186.5755 1161.0421,-57.892 1066.4603,-122.0076 913.8,-76.7878 871.6355,-64.2981 823.3723,-51.3253 788.2248,-42.1165"/>
<polygon fill="#000000" stroke="#000000" points="788.7781,-38.6437 778.2182,-39.5035 787.0095,-45.4166 788.7781,-38.6437"/>
<text text-anchor="middle" x="1254.8" y="-135.4816" font-family="Times,serif" font-size="14.00" fill="#000000"> 5/36 </text>
</g>
<!-- l9 -->
<!-- l8&#45;&gt;l9 -->
<!-- 3&#45;&gt;18 -->
<g id="edge95" class="edge">
<title>3&#45;&gt;18</title>
<path fill="none" stroke="#000000" d="M535.4209,-159.1023C528.8,-162.6757 521.7191,-166.0578 514.8,-168.5755 433.2807,-198.2386 132.8,-162.2209 132.8,-248.9694 132.8,-688.1204 132.8,-688.1204 132.8,-688.1204 132.8,-786.4241 474.21,-738.4389 567.8,-768.5143 571.7986,-769.7992 575.8334,-771.4133 579.793,-773.2202"/>
<polygon fill="#000000" stroke="#000000" points="578.3307,-776.4018 588.843,-777.722 581.4484,-770.1345 578.3307,-776.4018"/>
<text text-anchor="middle" x="152.3" y="-464.8449" font-family="Times,serif" font-size="14.00" fill="#000000"> 11/36 </text>
</g>
<!-- 3&#45;&gt;9 -->
<g id="edge96" class="edge">
<title>3&#45;&gt;9</title>
<path fill="none" stroke="#000000" d="M605.147,-150.4302C652.0451,-164.6241 733.4946,-190.6961 800.8,-219.5755 852.8252,-241.8985 863.3196,-252.7378 913.8,-278.3633 959.3493,-301.4856 974.0056,-301.4701 1016.8,-329.3633 1061.4188,-358.4455 1079.0472,-361.9766 1108.8,-406.151 1113.4984,-413.1268 1117.1512,-421.2778 1119.9704,-429.3432"/>
<polygon fill="#000000" stroke="#000000" points="1116.6825,-430.5562 1123.01,-439.0541 1123.3629,-428.4651 1116.6825,-430.5562"/>
<text text-anchor="middle" x="1000.8" y="-300.1633" font-family="Times,serif" font-size="14.00" fill="#000000"> 7/36 </text>
</g>
<!-- 3&#45;&gt;8 -->
<g id="edge97" class="edge">
<title>3&#45;&gt;8</title>
<path fill="none" stroke="#000000" d="M569.9438,-168.5877C571.3533,-179.0754 573.2783,-190.9256 575.8,-201.5755 577.743,-209.7813 579.6029,-211.434 581.8,-219.5755 590.8829,-253.2323 593.6705,-261.7478 597.8,-296.3633 598.6738,-303.6878 599.2243,-311.528 599.5617,-319.092"/>
<polygon fill="#000000" stroke="#000000" points="596.0661,-319.284 599.9001,-329.1608 603.0622,-319.0488 596.0661,-319.284"/>
<text text-anchor="middle" x="611.8" y="-245.2694" font-family="Times,serif" font-size="14.00" fill="#000000"> 1/36 </text>
</g>
<!-- 3&#45;&gt;6 -->
<g id="edge98" class="edge">
<title>3&#45;&gt;6</title>
<path fill="none" stroke="#000000" d="M523.3884,-144.1189C493.6221,-149.6894 455.2395,-161.5141 430.8,-186.5755 424.5105,-193.0251 420.1984,-201.4554 417.2421,-210.0237"/>
<polygon fill="#000000" stroke="#000000" points="413.8719,-209.0789 414.4473,-219.6581 420.5948,-211.0291 413.8719,-209.0789"/>
<text text-anchor="middle" x="446.8" y="-190.3755" font-family="Times,serif" font-size="14.00" fill="#000000"> 3/36 </text>
</g>
<!-- 3&#45;&gt;5 -->
<g id="edge99" class="edge">
<title>3&#45;&gt;5</title>
<path fill="none" stroke="#000000" d="M571.7951,-168.7237C575.1272,-180.3376 580.6544,-192.932 589.8,-201.5755 591.8439,-203.5072 651.8104,-221.5172 696.5412,-234.7658"/>
<polygon fill="#000000" stroke="#000000" points="695.815,-238.2008 706.3971,-237.681 697.8005,-231.4883 695.815,-238.2008"/>
<text text-anchor="middle" x="605.8" y="-190.3755" font-family="Times,serif" font-size="14.00" fill="#000000"> 5/36 </text>
</g>
<!-- 3&#45;&gt;1 -->
<g id="edge100" class="edge">
<title>3&#45;&gt;1</title>
<path fill="none" stroke="#000000" d="M571.3312,-109.701C574.4787,-98.097 579.8026,-85.4934 588.8,-76.7878 603.2587,-62.7979 650.7588,-49.2129 688.479,-40.2005"/>
<polygon fill="#000000" stroke="#000000" points="689.3865,-43.5828 698.3264,-37.897 687.792,-36.7668 689.3865,-43.5828"/>
<text text-anchor="middle" x="604.8" y="-80.5878" font-family="Times,serif" font-size="14.00" fill="#000000"> 9/36 </text>
</g>
<!-- 2&#45;&gt;17 -->
<g id="edge101" class="edge">
<title>2&#45;&gt;17</title>
<path fill="none" stroke="#000000" d="M936.9469,-144.616C987.965,-150.926 1075.4708,-161.3853 1150.8,-168.5755 1255.0764,-178.5288 1282.3847,-169.9047 1385.8,-186.5755 1461.6475,-198.8023 1572.8,-208.8394 1572.8,-248.9694 1572.8,-688.1204 1572.8,-688.1204 1572.8,-688.1204 1572.8,-782.0571 1250.6144,-754.0367 1157.8,-768.5143 1134.2028,-772.1951 1108.4253,-778.2976 1086.9141,-783.9912"/>
<polygon fill="#000000" stroke="#000000" points="1085.784,-780.6709 1077.0405,-786.6543 1087.6069,-787.4293 1085.784,-780.6709"/>
<text text-anchor="middle" x="1592.3" y="-464.8449" font-family="Times,serif" font-size="14.00" fill="#000000"> 11/36 </text>
</g>
<!-- 2&#45;&gt;11 -->
<g id="edge102" class="edge">
<title>2&#45;&gt;11</title>
<path fill="none" stroke="#000000" d="M856.7527,-152.1641C814.8132,-166.3709 744.1976,-188.8184 681.8,-201.5755 614.7186,-215.2902 590.8068,-190.5383 528.8,-219.5755 494.4106,-235.6797 500.3506,-260.5776 466.8,-278.3633 433.8335,-295.8392 408.1848,-267.2884 384.8,-296.3633 380.6218,-301.5581 381.6054,-305.5118 384.8,-311.3633 391.8891,-324.3482 405.0244,-316.7774 412.8,-329.3633 431.1162,-359.0105 433.6199,-399.1117 432.2784,-428.6546"/>
<polygon fill="#000000" stroke="#000000" points="428.7612,-428.8239 431.6324,-439.0223 435.7476,-429.2593 428.7612,-428.8239"/>
<text text-anchor="middle" x="400.8" y="-300.1633" font-family="Times,serif" font-size="14.00" fill="#000000"> 9/36 </text>
</g>
<!-- 2&#45;&gt;7 -->
<g id="edge103" class="edge">
<title>2&#45;&gt;7</title>
<path fill="none" stroke="#000000" d="M938.2931,-143.2019C994.2352,-149.2016 1085.7624,-162.4626 1108.8,-186.5755 1178.0864,-259.0958 1138.9095,-296.6622 1127.8,-311.3633 1113.8928,-329.7665 1056.9067,-343.1068 1013.3326,-350.8589"/>
<polygon fill="#000000" stroke="#000000" points="1012.6804,-347.4196 1003.4208,-352.5685 1013.8702,-354.3177 1012.6804,-347.4196"/>
<text text-anchor="middle" x="1164.8" y="-245.2694" font-family="Times,serif" font-size="14.00" fill="#000000"> 1/36 </text>
</g>
<!-- 2&#45;&gt;5 -->
<g id="edge104" class="edge">
<title>2&#45;&gt;5</title>
<path fill="none" stroke="#000000" d="M862.1543,-159.0499C849.4223,-167.2908 834.7237,-177.1214 821.8,-186.5755 817.4948,-189.7249 799.2926,-204.4638 781.6671,-218.8251"/>
<polygon fill="#000000" stroke="#000000" points="779.1991,-216.3215 773.6615,-225.354 783.6232,-221.7462 779.1991,-216.3215"/>
<text text-anchor="middle" x="837.8" y="-190.3755" font-family="Times,serif" font-size="14.00" fill="#000000"> 3/36 </text>
</g>
<!-- 2&#45;&gt;4 -->
<g id="edge105" class="edge">
<title>2&#45;&gt;4</title>
<path fill="none" stroke="#000000" d="M939.7892,-141.0101C1016.2166,-144.8769 1165.1104,-156.1805 1206.8,-186.5755 1214.9244,-192.4989 1221.0412,-201.154 1225.5975,-210.1423"/>
<polygon fill="#000000" stroke="#000000" points="1222.5192,-211.832 1229.7996,-219.5291 1228.9082,-208.9719 1222.5192,-211.832"/>
<text text-anchor="middle" x="1234.8" y="-190.3755" font-family="Times,serif" font-size="14.00" fill="#000000"> 5/36 </text>
</g>
<!-- 2&#45;&gt;1 -->
<g id="edge106" class="edge">
<title>2&#45;&gt;1</title>
<path fill="none" stroke="#000000" d="M863.2735,-118.0355C851.5338,-109.8693 838.0199,-100.4275 825.8,-91.7878 809.7932,-80.4706 792.2088,-67.8882 777.0636,-57.0039"/>
<polygon fill="#000000" stroke="#000000" points="779.0879,-54.1486 768.926,-51.1506 775.0004,-59.8313 779.0879,-54.1486"/>
<text text-anchor="middle" x="841.8" y="-80.5878" font-family="Times,serif" font-size="14.00" fill="#000000"> 7/36 </text>
</g>
<!-- 1&#45;&gt;5 -->
<g id="edge107" class="edge">
<title>1&#45;&gt;5</title>
<path fill="none" stroke="#000000" d="M746.1311,-58.9651C749.505,-74.066 753.1253,-92.7929 754.8,-109.7878 758.1075,-143.351 754.8604,-181.5701 751.2095,-209.4558"/>
<polygon fill="#000000" stroke="#000000" points="747.7088,-209.2203 749.8033,-219.606 754.6426,-210.1809 747.7088,-209.2203"/>
<text text-anchor="middle" x="771.8" y="-135.4816" font-family="Times,serif" font-size="14.00" fill="#000000"> 1/36 </text>
</g>
<!-- 1&#45;&gt;3 -->
<g id="edge108" class="edge">
<title>1&#45;&gt;3</title>
<path fill="none" stroke="#000000" d="M704.2859,-45.8799C687.2125,-54.4556 666.5194,-65.4908 648.8,-76.7878 633.2907,-86.6757 617.0118,-98.6859 603.0835,-109.5186"/>
<polygon fill="#000000" stroke="#000000" points="600.8748,-106.8028 595.1779,-115.7357 605.202,-112.3052 600.8748,-106.8028"/>
<text text-anchor="middle" x="668.3" y="-80.5878" font-family="Times,serif" font-size="14.00" fill="#000000"> 10/36 </text>
</g>
<!-- 1&#45;&gt;2 -->
<g id="edge109" class="edge">
<title>1&#45;&gt;2</title>
<path fill="none" stroke="#000000" d="M779.045,-38.2212C803.952,-45.3095 835.3489,-57.3634 857.8,-76.7878 865.3809,-83.3466 871.7438,-91.9151 876.9083,-100.5918"/>
<polygon fill="#000000" stroke="#000000" points="873.9724,-102.5166 881.8572,-109.5933 880.1064,-99.1441 873.9724,-102.5166"/>
<text text-anchor="middle" x="890.3" y="-80.5878" font-family="Times,serif" font-size="14.00" fill="#000000"> 14/36 </text>
</g>
<!-- 1&#45;&gt;1 -->
<g id="edge110" class="edge">
<title>1&#45;&gt;1</title>
<path fill="none" stroke="#000000" d="M778.0404,-39.5034C792.3964,-39.7774 804.1568,-36.4075 804.1568,-29.3939 804.1568,-24.1336 797.5416,-20.923 788.1775,-19.7621"/>
<polygon fill="#000000" stroke="#000000" points="788.1941,-16.2591 778.0404,-19.2843 787.8645,-23.2513 788.1941,-16.2591"/>
<text text-anchor="middle" x="823.6568" y="-25.6939" font-family="Times,serif" font-size="14.00" fill="#000000"> 11/36 </text>
</g>
</g>
</svg>
